<svg width="135" height="248" viewBox="0 0 135 248" fill="none" xmlns="http://www.w3.org/2000/svg">
<g filter="url(#filter0_d_0_892)">
<path fill-rule="evenodd" clip-rule="evenodd" d="M21.3031 0.273438H113.793C122.663 0.273437 129.854 7.1064 129.854 15.5353V224.465C129.854 232.894 122.663 239.727 113.793 239.727H21.3031C12.4328 239.727 5.24194 232.894 5.24194 224.465V15.5353C5.24194 7.1064 12.4328 0.273438 21.3031 0.273438Z" fill="#213648"/>
<path opacity="0.595562" fill-rule="evenodd" clip-rule="evenodd" d="M114.151 0H20.8903C16.5363 0.263499 12.5207 2.23533 8.84363 5.91549C11.2084 3.86683 15.4262 1.12539 21.0026 1.12539C21.0026 1.12539 110.321 1.12539 114.038 1.12539C119.615 1.12539 123.833 3.86683 126.197 5.91549C122.52 2.23533 118.505 0.263499 114.151 0Z" fill="url(#paint0_linear_0_892)" fill-opacity="0.65"/>
<path opacity="0.75" fill-rule="evenodd" clip-rule="evenodd" d="M127.331 223.082V17.7914C127.331 12.2832 125.291 10.247 124.074 8.93956C122.857 7.63207 122.805 6.96519 124.554 7.95237C126.302 8.93956 129.799 11.8148 129.799 17.7914V223.082C129.799 229.059 126.302 231.934 124.554 232.921C122.805 233.908 122.857 233.241 124.074 231.934C125.291 230.626 127.331 228.59 127.331 223.082Z" fill="url(#paint1_linear_0_892)"/>
<path opacity="0.75" fill-rule="evenodd" clip-rule="evenodd" d="M7.71049 222.082V16.7914C7.71049 11.2832 9.75025 9.24705 10.9671 7.93956C12.1839 6.63207 12.2357 5.96519 10.4873 6.95237C8.73896 7.93956 5.24195 10.8148 5.24195 16.7914V222.082C5.24195 228.059 8.73896 230.934 10.4873 231.921C12.2357 232.908 12.1839 232.241 10.9671 230.934C9.75025 229.626 7.71049 227.59 7.71049 222.082Z" fill="url(#paint2_linear_0_892)"/>
<path fill-rule="evenodd" clip-rule="evenodd" d="M4 49.9481C4 49.2851 4.5375 48.7476 5.20055 48.7476C5.8636 48.7476 6.4011 49.2851 6.4011 49.9481V78.4354C6.4011 79.0984 5.8636 79.6359 5.20055 79.6359C4.5375 79.6359 4 79.0984 4 78.4354V49.9481Z" fill="#2E423C"/>
<path fill-rule="evenodd" clip-rule="evenodd" d="M128.557 75.1415C128.557 74.4784 129.095 73.9409 129.758 73.9409C130.421 73.9409 130.958 74.4784 130.958 75.1415V95.2764C130.958 95.9394 130.421 96.4769 129.758 96.4769C129.095 96.4769 128.557 95.9394 128.557 95.2764V75.1415Z" fill="#2E423C"/>
<path fill-rule="evenodd" clip-rule="evenodd" d="M56.5612 5.97314L20.5746 5.97314C15.2039 5.97314 11.2906 9.60353 11.2906 14.345V217.092C11.2906 223.274 17.3374 228.752 24.1747 228.752H110.909C117.495 228.752 123.793 223.232 123.793 217.092V14.8931C123.793 9.21004 119.542 6.00694 114.509 5.97314L77.9521 5.97314C77.8136 5.99567 75.3023 7.02038 74.241 9.60353C73.1796 12.1867 71.044 14.2459 68.7059 14.2459H65.9902C64.8788 14.2459 61.9528 13.1756 60.4711 9.60353C58.9895 6.03143 56.6997 5.99567 56.5612 5.97314Z" fill="white"/>
<mask id="mask0_0_892" style="mask-type:luminance" maskUnits="userSpaceOnUse" x="11" y="5" width="113" height="224">
<path fill-rule="evenodd" clip-rule="evenodd" d="M56.5612 5.97314L20.5746 5.97314C15.2039 5.97314 11.2906 9.60353 11.2906 14.345V217.092C11.2906 223.274 17.3374 228.752 24.1747 228.752H110.909C117.495 228.752 123.793 223.232 123.793 217.092V14.8931C123.793 9.21004 119.542 6.00694 114.509 5.97314L77.9521 5.97314C77.8136 5.99567 75.3023 7.02038 74.241 9.60353C73.1796 12.1867 71.044 14.2459 68.7059 14.2459H65.9902C64.8788 14.2459 61.9528 13.1756 60.4711 9.60353C58.9895 6.03143 56.6997 5.99567 56.5612 5.97314Z" fill="white"/>
</mask>
<g mask="url(#mask0_0_892)">
<rect x="11" y="6" width="113" height="223" fill="url(#paint3_linear_0_892)"/>
<path fill-rule="evenodd" clip-rule="evenodd" d="M62.7615 65.3105V67.1998H54.5433V65.5256C54.5433 64.9624 54.6491 64.4747 54.8606 64.0625C55.0721 63.6504 55.352 63.292 55.7002 62.9873C56.0485 62.6827 56.4302 62.4152 56.8455 62.1848C57.2608 61.9544 57.6774 61.7368 58.0953 61.532C58.5131 61.3272 58.8962 61.1211 59.2444 60.9137C59.5926 60.7064 59.8725 60.4747 60.084 60.2187C60.2955 59.9627 60.4013 59.6606 60.4013 59.3124C60.4013 58.867 60.2452 58.5035 59.9331 58.2219C59.621 57.9403 59.1941 57.7995 58.6524 57.7995C58.0901 57.7995 57.6129 57.9608 57.2208 58.2833C56.8287 58.6059 56.5863 59.0923 56.4934 59.7425H54.3344C54.3447 59.036 54.5111 58.3947 54.8335 57.8187C55.156 57.2427 55.6396 56.7857 56.2845 56.4478C56.9293 56.1099 57.7393 55.9409 58.7143 55.9409C59.5501 55.9409 60.271 56.0817 60.8772 56.3633C61.4834 56.6449 61.9516 57.0366 62.2817 57.5384C62.6119 58.0401 62.777 58.6264 62.777 59.2971C62.777 59.8552 62.6738 60.3364 62.4675 60.7409C62.2611 61.1454 61.9877 61.491 61.6472 61.7777C61.3067 62.0644 60.9327 62.3153 60.5251 62.5304C60.1176 62.7454 59.7113 62.9451 59.3063 63.1294C58.9013 63.3137 58.5286 63.5019 58.1881 63.6939C57.8476 63.8859 57.5742 64.1022 57.3679 64.3428C57.1615 64.5835 57.0583 64.8728 57.0583 65.2107V65.3105H62.7615ZM51.9974 56.0945V67.1998H49.7068V58.8824H47.7103V57.6152C48.35 57.6152 48.8672 57.555 49.2619 57.4347C49.6565 57.3144 49.9519 57.1403 50.1479 56.9124C50.344 56.6846 50.46 56.412 50.4962 56.0945H51.9974ZM66.7391 61.8545V59.4507H64.2628V61.8545H66.7391ZM66.7391 64.7576V67.1537H64.2628V64.7576H66.7391ZM75.6537 67.1998V64.7422H77.3794V62.8606H75.6537V56.0945H73.4328L68.3332 62.899V64.7422H73.4869L73.4792 67.1998H75.6537ZM70.4225 62.8606H73.4869V58.7902L70.4225 62.8606ZM82.6105 67.3688C83.5907 67.3688 84.4342 67.1499 85.141 66.7121C85.8478 66.2744 86.3907 65.6139 86.7699 64.7307C87.1491 63.8475 87.3387 62.7428 87.3387 61.4168C87.3387 60.3057 87.1543 59.3393 86.7854 58.5176C86.4165 57.6958 85.8877 57.0609 85.199 56.6129C84.5103 56.1649 83.6913 55.9409 82.7421 55.9409C81.896 55.9409 81.1583 56.1022 80.5289 56.4248C79.8995 56.7473 79.4094 57.1928 79.0586 57.7611C78.7078 58.3294 78.5324 58.9771 78.5324 59.7041C78.5324 60.426 78.6988 61.0494 79.0315 61.5742C79.3643 62.099 79.8234 62.5035 80.409 62.7876C80.9945 63.0718 81.6664 63.2139 82.4248 63.2139C82.8427 63.2139 83.2219 63.1588 83.5623 63.0488C83.9028 62.9387 84.2008 62.7825 84.4561 62.5803C84.7115 62.378 84.9114 62.1412 85.0559 61.8699C85.1178 62.7556 85.0468 63.4724 84.8431 64.0203C84.6393 64.5681 84.3349 64.9675 83.9299 65.2184C83.5249 65.4692 83.0542 65.5947 82.5177 65.5947C82.0327 65.5947 81.6303 65.4603 81.3105 65.1915C80.9906 64.9227 80.7843 64.5732 80.6914 64.1432H78.5401C78.5866 64.7934 78.8007 65.3604 79.1824 65.8443C79.5642 66.3281 80.0569 66.7032 80.6604 66.9694C81.264 67.2356 81.9141 67.3688 82.6105 67.3688ZM81.473 60.9521C81.8135 61.2721 82.2597 61.4321 82.8117 61.4321C83.1264 61.4321 83.4321 61.3617 83.7287 61.2209C84.0254 61.0801 84.2691 60.9022 84.46 60.6872C84.6509 60.4721 84.7463 60.2494 84.7463 60.019C84.7515 59.5224 84.6728 59.0961 84.5103 58.7403C84.3478 58.3844 84.1208 58.1118 83.8293 57.9224C83.5378 57.7329 83.1986 57.6382 82.8117 57.6382C82.4558 57.6382 82.1385 57.7201 81.8599 57.884C81.5813 58.0478 81.3621 58.2782 81.2021 58.5752C81.0422 58.8721 80.9622 59.2152 80.9622 59.6043C80.9622 60.1828 81.1325 60.6321 81.473 60.9521Z" fill="white"/>
</g>
<g clip-path="url(#clip0_0_892)">
<g filter="url(#filter1_d_0_892)">
<rect x="14.2443" y="80" width="105.004" height="42.5532" rx="2" fill="#FBFCFE"/>
</g>
<path d="M22.115 97.31V96.885H24.85V97.31H23.7475V100.5H23.2825V97.31H22.115ZM25.3513 100.5V96.785H25.8013V98.295C25.8446 98.2233 25.9029 98.1567 25.9763 98.095C26.0496 98.0317 26.1388 97.9808 26.2438 97.9425C26.3488 97.9025 26.4704 97.8825 26.6088 97.8825C26.7771 97.8825 26.9296 97.9142 27.0663 97.9775C27.2029 98.0392 27.3113 98.1275 27.3913 98.2425C27.4713 98.3575 27.5113 98.4942 27.5113 98.6525V100.5H27.0488V98.745C27.0488 98.59 26.9954 98.4708 26.8888 98.3875C26.7838 98.3025 26.6463 98.26 26.4763 98.26C26.3613 98.26 26.2529 98.2792 26.1513 98.3175C26.0496 98.3542 25.9671 98.4108 25.9038 98.4875C25.8421 98.5625 25.8113 98.6583 25.8113 98.775V100.5H25.3513ZM28.5621 99.315C28.5621 99.4783 28.5888 99.6267 28.6421 99.76C28.6971 99.8917 28.7796 99.9967 28.8896 100.075C29.0013 100.153 29.1404 100.192 29.3071 100.192C29.4721 100.192 29.6138 100.154 29.7321 100.077C29.8521 100.001 29.9288 99.89 29.9621 99.745H30.3996C30.3679 99.92 30.2979 100.067 30.1896 100.188C30.0813 100.307 29.9504 100.398 29.7971 100.46C29.6438 100.52 29.4838 100.55 29.3171 100.55C29.0754 100.55 28.8629 100.498 28.6796 100.392C28.4963 100.287 28.3529 100.137 28.2496 99.94C28.1463 99.7433 28.0946 99.5075 28.0946 99.2325C28.0946 98.9608 28.1413 98.7225 28.2346 98.5175C28.3279 98.3125 28.4629 98.1525 28.6396 98.0375C28.8179 97.9225 29.0321 97.865 29.2821 97.865C29.5254 97.865 29.7313 97.9175 29.8996 98.0225C30.0679 98.1275 30.1954 98.2758 30.2821 98.4675C30.3704 98.6575 30.4146 98.8833 30.4146 99.145V99.315H28.5621ZM28.5646 99.0025H29.9696C29.9696 98.8542 29.9446 98.7208 29.8946 98.6025C29.8446 98.4825 29.7679 98.3883 29.6646 98.32C29.5629 98.25 29.4346 98.215 29.2796 98.215C29.1179 98.215 28.9838 98.2542 28.8771 98.3325C28.7721 98.4092 28.6929 98.5083 28.6396 98.63C28.5879 98.75 28.5629 98.8742 28.5646 99.0025ZM32.1677 101.305V97.915H32.6277L32.6327 98.365C32.6627 98.3117 32.701 98.2558 32.7477 98.1975C32.796 98.1392 32.8543 98.085 32.9227 98.035C32.9927 97.985 33.0735 97.9442 33.1652 97.9125C33.2585 97.8808 33.3643 97.865 33.4827 97.865C33.6893 97.865 33.871 97.9125 34.0277 98.0075C34.186 98.1008 34.3093 98.2442 34.3977 98.4375C34.486 98.6308 34.5302 98.8758 34.5302 99.1725C34.5302 99.4692 34.4868 99.72 34.4002 99.925C34.3152 100.128 34.1918 100.283 34.0302 100.39C33.8685 100.497 33.6735 100.55 33.4452 100.55C33.3302 100.55 33.2277 100.533 33.1377 100.5C33.0493 100.468 32.9718 100.427 32.9052 100.375C32.8402 100.322 32.7852 100.265 32.7402 100.205C32.6968 100.145 32.661 100.087 32.6327 100.032V101.305H32.1677ZM33.3577 100.19C33.571 100.19 33.7452 100.109 33.8802 99.9475C34.0152 99.7842 34.0827 99.5308 34.0827 99.1875C34.0827 98.8925 34.021 98.6583 33.8977 98.485C33.7743 98.3117 33.5943 98.225 33.3577 98.225C33.1177 98.225 32.936 98.3142 32.8127 98.4925C32.6893 98.6692 32.6277 98.9008 32.6277 99.1875C32.6277 99.3725 32.6552 99.5408 32.7102 99.6925C32.7652 99.8442 32.8468 99.965 32.9552 100.055C33.0635 100.145 33.1977 100.19 33.3577 100.19ZM35.8172 100.55C35.6506 100.55 35.5031 100.521 35.3747 100.462C35.2464 100.402 35.1456 100.317 35.0722 100.205C35.0006 100.093 34.9647 99.9583 34.9647 99.8C34.9647 99.5133 35.0647 99.3 35.2647 99.16C35.4647 99.02 35.7856 98.945 36.2272 98.935L36.6897 98.9225V98.72C36.6897 98.5617 36.6422 98.4367 36.5472 98.345C36.4522 98.2517 36.3047 98.205 36.1047 98.205C35.9564 98.2067 35.8256 98.2417 35.7122 98.31C35.6006 98.3783 35.5281 98.49 35.4947 98.645H35.0872C35.0972 98.4767 35.1447 98.335 35.2297 98.22C35.3147 98.1033 35.4331 98.015 35.5847 97.955C35.7381 97.895 35.9189 97.865 36.1272 97.865C36.3522 97.865 36.5389 97.8967 36.6872 97.96C36.8372 98.0233 36.9489 98.1167 37.0222 98.24C37.0972 98.3633 37.1347 98.515 37.1347 98.695V100.5H36.7397L36.7072 100.015C36.6072 100.217 36.4797 100.357 36.3247 100.435C36.1714 100.512 36.0022 100.55 35.8172 100.55ZM35.9572 100.217C36.0439 100.217 36.1297 100.202 36.2147 100.17C36.3014 100.138 36.3806 100.096 36.4522 100.042C36.5239 99.9875 36.5806 99.9267 36.6222 99.86C36.6656 99.7917 36.6881 99.7217 36.6897 99.65V99.2075L36.3047 99.215C36.1081 99.2183 35.9431 99.2383 35.8097 99.275C35.6781 99.3117 35.5789 99.3692 35.5122 99.4475C35.4472 99.5258 35.4147 99.6283 35.4147 99.755C35.4147 99.9 35.4647 100.013 35.5647 100.095C35.6664 100.177 35.7972 100.217 35.9572 100.217ZM38.0965 101.325C37.9448 101.325 37.8407 101.314 37.784 101.293C37.7273 101.271 37.699 101.26 37.699 101.26V100.96L37.9615 100.965C38.0582 100.968 38.1382 100.962 38.2015 100.945C38.2648 100.928 38.3157 100.906 38.354 100.878C38.3923 100.849 38.4215 100.818 38.4415 100.783C38.4632 100.748 38.4807 100.714 38.494 100.683L38.584 100.437L37.574 97.915H38.0415L38.804 99.91L39.5615 97.915H40.014L38.924 100.695C38.8573 100.858 38.7823 100.986 38.699 101.078C38.6173 101.169 38.5257 101.233 38.424 101.27C38.324 101.307 38.2148 101.325 38.0965 101.325ZM40.5075 100.5V97.915H40.9525V98.29C41.0242 98.1767 41.1225 98.0775 41.2475 97.9925C41.3725 97.9075 41.535 97.865 41.735 97.865C41.8283 97.865 41.9233 97.8808 42.02 97.9125C42.1183 97.9442 42.2083 97.9917 42.29 98.055C42.3717 98.1183 42.435 98.1958 42.48 98.2875C42.56 98.1608 42.6683 98.0592 42.805 97.9825C42.9417 97.9042 43.0958 97.865 43.2675 97.865C43.3575 97.865 43.4517 97.8792 43.55 97.9075C43.6483 97.9342 43.7392 97.9825 43.8225 98.0525C43.9075 98.1208 43.9767 98.2167 44.03 98.34C44.0833 98.4617 44.11 98.6183 44.11 98.81V100.5H43.645V98.855C43.645 98.6983 43.62 98.5775 43.57 98.4925C43.52 98.4058 43.4542 98.345 43.3725 98.31C43.2925 98.275 43.2067 98.2575 43.115 98.2575C43.035 98.2575 42.95 98.2733 42.86 98.305C42.77 98.3367 42.6933 98.39 42.63 98.465C42.5667 98.54 42.535 98.6425 42.535 98.7725V100.5H42.075V98.72C42.075 98.6183 42.0475 98.5333 41.9925 98.465C41.9392 98.3967 41.8717 98.345 41.79 98.31C41.71 98.275 41.63 98.2575 41.55 98.2575C41.4617 98.2575 41.3725 98.275 41.2825 98.31C41.1942 98.345 41.1192 98.4008 41.0575 98.4775C40.9975 98.5525 40.9675 98.6508 40.9675 98.7725V100.5H40.5075ZM45.1637 99.315C45.1637 99.4783 45.1903 99.6267 45.2437 99.76C45.2987 99.8917 45.3812 99.9967 45.4912 100.075C45.6028 100.153 45.742 100.192 45.9087 100.192C46.0737 100.192 46.2153 100.154 46.3337 100.077C46.4537 100.001 46.5303 99.89 46.5637 99.745H47.0012C46.9695 99.92 46.8995 100.067 46.7912 100.188C46.6828 100.307 46.552 100.398 46.3987 100.46C46.2453 100.52 46.0853 100.55 45.9187 100.55C45.677 100.55 45.4645 100.498 45.2812 100.392C45.0978 100.287 44.9545 100.137 44.8512 99.94C44.7478 99.7433 44.6962 99.5075 44.6962 99.2325C44.6962 98.9608 44.7428 98.7225 44.8362 98.5175C44.9295 98.3125 45.0645 98.1525 45.2412 98.0375C45.4195 97.9225 45.6337 97.865 45.8837 97.865C46.127 97.865 46.3328 97.9175 46.5012 98.0225C46.6695 98.1275 46.797 98.2758 46.8837 98.4675C46.972 98.6575 47.0162 98.8833 47.0162 99.145V99.315H45.1637ZM45.1662 99.0025H46.5712C46.5712 98.8542 46.5462 98.7208 46.4962 98.6025C46.4462 98.4825 46.3695 98.3883 46.2662 98.32C46.1645 98.25 46.0362 98.215 45.8812 98.215C45.7195 98.215 45.5853 98.2542 45.4787 98.3325C45.3737 98.4092 45.2945 98.5083 45.2412 98.63C45.1895 98.75 45.1645 98.8742 45.1662 99.0025ZM47.6511 100.5V97.915H48.0986V98.29C48.1402 98.2183 48.1977 98.1508 48.2711 98.0875C48.3461 98.0242 48.4361 97.9733 48.5411 97.935C48.6477 97.8967 48.7702 97.8775 48.9086 97.8775C49.0719 97.8775 49.2219 97.91 49.3586 97.975C49.4969 98.04 49.6069 98.1417 49.6886 98.28C49.7719 98.4167 49.8136 98.5933 49.8136 98.81V100.5H49.3511V98.855C49.3511 98.6533 49.2977 98.5042 49.1911 98.4075C49.0861 98.3092 48.9494 98.26 48.7811 98.26C48.6644 98.26 48.5552 98.2792 48.4536 98.3175C48.3519 98.3542 48.2694 98.4108 48.2061 98.4875C48.1427 98.5625 48.1111 98.6575 48.1111 98.7725V100.5H47.6511ZM51.728 98.2525H51.1455V99.86C51.1455 99.9517 51.1547 100.019 51.173 100.062C51.193 100.104 51.2255 100.131 51.2705 100.142C51.3172 100.154 51.3805 100.16 51.4605 100.16H51.743V100.47C51.7114 100.482 51.663 100.492 51.598 100.5C51.5347 100.508 51.4555 100.513 51.3605 100.513C51.1822 100.513 51.0439 100.488 50.9455 100.44C50.8472 100.392 50.778 100.32 50.738 100.225C50.6997 100.13 50.6805 100.013 50.6805 99.875V98.2525H50.2605V97.915H50.693L50.8055 97.1625H51.1455V97.9125H51.728V98.2525ZM53.5446 100.5V96.785H53.9946V98.295C54.0379 98.2233 54.0963 98.1567 54.1696 98.095C54.2429 98.0317 54.3321 97.9808 54.4371 97.9425C54.5421 97.9025 54.6638 97.8825 54.8021 97.8825C54.9704 97.8825 55.1229 97.9142 55.2596 97.9775C55.3963 98.0392 55.5046 98.1275 55.5846 98.2425C55.6646 98.3575 55.7046 98.4942 55.7046 98.6525V100.5H55.2421V98.745C55.2421 98.59 55.1888 98.4708 55.0821 98.3875C54.9771 98.3025 54.8396 98.26 54.6696 98.26C54.5546 98.26 54.4463 98.2792 54.3446 98.3175C54.2429 98.3542 54.1604 98.4108 54.0971 98.4875C54.0354 98.5625 54.0046 98.6583 54.0046 98.775V100.5H53.5446ZM57.1307 100.55C56.964 100.55 56.8165 100.521 56.6882 100.462C56.5599 100.402 56.459 100.317 56.3857 100.205C56.314 100.093 56.2782 99.9583 56.2782 99.8C56.2782 99.5133 56.3782 99.3 56.5782 99.16C56.7782 99.02 57.099 98.945 57.5407 98.935L58.0032 98.9225V98.72C58.0032 98.5617 57.9557 98.4367 57.8607 98.345C57.7657 98.2517 57.6182 98.205 57.4182 98.205C57.2699 98.2067 57.139 98.2417 57.0257 98.31C56.914 98.3783 56.8415 98.49 56.8082 98.645H56.4007C56.4107 98.4767 56.4582 98.335 56.5432 98.22C56.6282 98.1033 56.7465 98.015 56.8982 97.955C57.0515 97.895 57.2324 97.865 57.4407 97.865C57.6657 97.865 57.8524 97.8967 58.0007 97.96C58.1507 98.0233 58.2624 98.1167 58.3357 98.24C58.4107 98.3633 58.4482 98.515 58.4482 98.695V100.5H58.0532L58.0207 100.015C57.9207 100.217 57.7932 100.357 57.6382 100.435C57.4849 100.512 57.3157 100.55 57.1307 100.55ZM57.2707 100.217C57.3574 100.217 57.4432 100.202 57.5282 100.17C57.6149 100.138 57.694 100.096 57.7657 100.042C57.8374 99.9875 57.894 99.9267 57.9357 99.86C57.979 99.7917 58.0015 99.7217 58.0032 99.65V99.2075L57.6182 99.215C57.4215 99.2183 57.2565 99.2383 57.1232 99.275C56.9915 99.3117 56.8924 99.3692 56.8257 99.4475C56.7607 99.5258 56.7282 99.6283 56.7282 99.755C56.7282 99.9 56.7782 100.013 56.8782 100.095C56.9799 100.177 57.1107 100.217 57.2707 100.217ZM60.1115 100.55C59.9315 100.55 59.764 100.523 59.609 100.467C59.4557 100.411 59.3282 100.323 59.2265 100.205C59.1249 100.085 59.0607 99.9325 59.034 99.7475H59.454C59.4774 99.8492 59.519 99.9342 59.579 100.002C59.6407 100.069 59.7174 100.12 59.809 100.155C59.9007 100.188 60.0007 100.205 60.109 100.205C60.2824 100.205 60.4224 100.172 60.529 100.107C60.6357 100.042 60.689 99.9425 60.689 99.8075C60.689 99.7125 60.6607 99.6367 60.604 99.58C60.549 99.5217 60.4632 99.4792 60.3465 99.4525L59.8115 99.32C59.6032 99.27 59.4365 99.1917 59.3115 99.085C59.1865 98.9783 59.124 98.8292 59.124 98.6375C59.1224 98.4858 59.1582 98.3525 59.2315 98.2375C59.3049 98.1225 59.4149 98.0317 59.5615 97.965C59.7082 97.8983 59.8907 97.865 60.109 97.865C60.389 97.865 60.6149 97.9283 60.7865 98.055C60.9599 98.18 61.0499 98.3642 61.0565 98.6075H60.649C60.6324 98.4842 60.5765 98.3867 60.4815 98.315C60.3882 98.2417 60.2624 98.205 60.104 98.205C59.939 98.205 59.8049 98.2383 59.7015 98.305C59.5982 98.37 59.5465 98.4717 59.5465 98.61C59.5465 98.7017 59.5832 98.7742 59.6565 98.8275C59.7299 98.8792 59.8382 98.9225 59.9815 98.9575L60.499 99.0875C60.619 99.1192 60.7174 99.1608 60.794 99.2125C60.8724 99.2642 60.934 99.3217 60.979 99.385C61.0257 99.4483 61.0582 99.515 61.0765 99.585C61.0965 99.6533 61.1065 99.7192 61.1065 99.7825C61.1065 99.9408 61.0665 100.077 60.9865 100.192C60.9082 100.306 60.7949 100.394 60.6465 100.457C60.4999 100.519 60.3215 100.55 60.1115 100.55ZM64.1629 100.55C64.0113 100.55 63.8829 100.53 63.7779 100.49C63.6746 100.45 63.5896 100.399 63.5229 100.337C63.4563 100.274 63.4046 100.21 63.3679 100.145C63.3313 100.078 63.3046 100.02 63.2879 99.97L63.2379 100.5H62.8854V96.785H63.3504V98.325C63.3721 98.2817 63.4046 98.2342 63.4479 98.1825C63.4929 98.1308 63.5504 98.0808 63.6204 98.0325C63.6904 97.9842 63.7729 97.9442 63.8679 97.9125C63.9646 97.8808 64.0746 97.865 64.1979 97.865C64.5213 97.865 64.7779 97.9775 64.9679 98.2025C65.1596 98.4275 65.2554 98.7592 65.2554 99.1975C65.2554 99.4692 65.2146 99.7067 65.1329 99.91C65.0513 100.112 64.9296 100.269 64.7679 100.382C64.6063 100.494 64.4046 100.55 64.1629 100.55ZM64.0804 100.195C64.2904 100.195 64.4613 100.114 64.5929 99.9525C64.7246 99.7892 64.7904 99.53 64.7904 99.175C64.7904 98.8733 64.7288 98.64 64.6054 98.475C64.4838 98.3083 64.3054 98.225 64.0704 98.225C63.8988 98.225 63.7604 98.2625 63.6554 98.3375C63.5521 98.4108 63.4754 98.5183 63.4254 98.66C63.3771 98.8017 63.3521 98.9733 63.3504 99.175C63.3504 99.5367 63.4063 99.7975 63.5179 99.9575C63.6313 100.116 63.8188 100.195 64.0804 100.195ZM66.1891 99.315C66.1891 99.4783 66.2157 99.6267 66.2691 99.76C66.3241 99.8917 66.4066 99.9967 66.5166 100.075C66.6282 100.153 66.7674 100.192 66.9341 100.192C67.0991 100.192 67.2407 100.154 67.3591 100.077C67.4791 100.001 67.5557 99.89 67.5891 99.745H68.0266C67.9949 99.92 67.9249 100.067 67.8166 100.188C67.7082 100.307 67.5774 100.398 67.4241 100.46C67.2707 100.52 67.1107 100.55 66.9441 100.55C66.7024 100.55 66.4899 100.498 66.3066 100.392C66.1232 100.287 65.9799 100.137 65.8766 99.94C65.7732 99.7433 65.7216 99.5075 65.7216 99.2325C65.7216 98.9608 65.7682 98.7225 65.8616 98.5175C65.9549 98.3125 66.0899 98.1525 66.2666 98.0375C66.4449 97.9225 66.6591 97.865 66.9091 97.865C67.1524 97.865 67.3582 97.9175 67.5266 98.0225C67.6949 98.1275 67.8224 98.2758 67.9091 98.4675C67.9974 98.6575 68.0416 98.8833 68.0416 99.145V99.315H66.1891ZM66.1916 99.0025H67.5966C67.5966 98.8542 67.5716 98.7208 67.5216 98.6025C67.4716 98.4825 67.3949 98.3883 67.2916 98.32C67.1899 98.25 67.0616 98.215 66.9066 98.215C66.7449 98.215 66.6107 98.2542 66.5041 98.3325C66.3991 98.4092 66.3199 98.5083 66.2666 98.63C66.2149 98.75 66.1899 98.8742 66.1916 99.0025ZM69.0064 99.315C69.0064 99.4783 69.0331 99.6267 69.0864 99.76C69.1414 99.8917 69.2239 99.9967 69.3339 100.075C69.4456 100.153 69.5848 100.192 69.7514 100.192C69.9164 100.192 70.0581 100.154 70.1764 100.077C70.2964 100.001 70.3731 99.89 70.4064 99.745H70.8439C70.8123 99.92 70.7423 100.067 70.6339 100.188C70.5256 100.307 70.3948 100.398 70.2414 100.46C70.0881 100.52 69.9281 100.55 69.7614 100.55C69.5198 100.55 69.3073 100.498 69.1239 100.392C68.9406 100.287 68.7973 100.137 68.6939 99.94C68.5906 99.7433 68.5389 99.5075 68.5389 99.2325C68.5389 98.9608 68.5856 98.7225 68.6789 98.5175C68.7723 98.3125 68.9073 98.1525 69.0839 98.0375C69.2623 97.9225 69.4764 97.865 69.7264 97.865C69.9698 97.865 70.1756 97.9175 70.3439 98.0225C70.5123 98.1275 70.6398 98.2758 70.7264 98.4675C70.8148 98.6575 70.8589 98.8833 70.8589 99.145V99.315H69.0064ZM69.0089 99.0025H70.4139C70.4139 98.8542 70.3889 98.7208 70.3389 98.6025C70.2889 98.4825 70.2123 98.3883 70.1089 98.32C70.0073 98.25 69.8789 98.215 69.7239 98.215C69.5623 98.215 69.4281 98.2542 69.3214 98.3325C69.2164 98.4092 69.1373 98.5083 69.0839 98.63C69.0323 98.75 69.0073 98.8742 69.0089 99.0025ZM71.4938 100.5V97.915H71.9413V98.29C71.983 98.2183 72.0405 98.1508 72.1138 98.0875C72.1888 98.0242 72.2788 97.9733 72.3838 97.935C72.4905 97.8967 72.613 97.8775 72.7513 97.8775C72.9147 97.8775 73.0647 97.91 73.2013 97.975C73.3397 98.04 73.4497 98.1417 73.5313 98.28C73.6147 98.4167 73.6563 98.5933 73.6563 98.81V100.5H73.1938V98.855C73.1938 98.6533 73.1405 98.5042 73.0338 98.4075C72.9288 98.3092 72.7922 98.26 72.6238 98.26C72.5072 98.26 72.398 98.2792 72.2963 98.3175C72.1947 98.3542 72.1122 98.4108 72.0488 98.4875C71.9855 98.5625 71.9538 98.6575 71.9538 98.7725V100.5H71.4938ZM75.5319 101.305V97.915H75.9919L75.9969 98.365C76.0269 98.3117 76.0652 98.2558 76.1119 98.1975C76.1602 98.1392 76.2186 98.085 76.2869 98.035C76.3569 97.985 76.4377 97.9442 76.5294 97.9125C76.6227 97.8808 76.7286 97.865 76.8469 97.865C77.0536 97.865 77.2352 97.9125 77.3919 98.0075C77.5502 98.1008 77.6736 98.2442 77.7619 98.4375C77.8502 98.6308 77.8944 98.8758 77.8944 99.1725C77.8944 99.4692 77.8511 99.72 77.7644 99.925C77.6794 100.128 77.5561 100.283 77.3944 100.39C77.2327 100.497 77.0377 100.55 76.8094 100.55C76.6944 100.55 76.5919 100.533 76.5019 100.5C76.4136 100.468 76.3361 100.427 76.2694 100.375C76.2044 100.322 76.1494 100.265 76.1044 100.205C76.0611 100.145 76.0252 100.087 75.9969 100.032V101.305H75.5319ZM76.7219 100.19C76.9352 100.19 77.1094 100.109 77.2444 99.9475C77.3794 99.7842 77.4469 99.5308 77.4469 99.1875C77.4469 98.8925 77.3852 98.6583 77.2619 98.485C77.1386 98.3117 76.9586 98.225 76.7219 98.225C76.4819 98.225 76.3002 98.3142 76.1769 98.4925C76.0536 98.6692 75.9919 98.9008 75.9919 99.1875C75.9919 99.3725 76.0194 99.5408 76.0744 99.6925C76.1294 99.8442 76.2111 99.965 76.3194 100.055C76.4277 100.145 76.5619 100.19 76.7219 100.19ZM78.5007 100.5V97.915H78.9407V98.4125C78.984 98.2892 79.0448 98.1875 79.1232 98.1075C79.2015 98.0258 79.2907 97.965 79.3907 97.925C79.4923 97.885 79.5973 97.865 79.7057 97.865C79.744 97.865 79.7815 97.8675 79.8182 97.8725C79.8548 97.8775 79.8832 97.8858 79.9032 97.8975V98.345C79.8782 98.3333 79.8457 98.3258 79.8057 98.3225C79.7673 98.3175 79.7348 98.315 79.7082 98.315C79.6048 98.3083 79.5082 98.315 79.4182 98.335C79.3282 98.3533 79.249 98.3858 79.1807 98.4325C79.1123 98.4792 79.0582 98.5408 79.0182 98.6175C78.9798 98.6925 78.9607 98.7842 78.9607 98.8925V100.5H78.5007ZM81.408 100.55C81.1697 100.55 80.9614 100.499 80.783 100.397C80.6047 100.294 80.4664 100.143 80.368 99.945C80.2697 99.7467 80.2205 99.5042 80.2205 99.2175C80.2205 98.9475 80.2664 98.7108 80.358 98.5075C80.4497 98.3042 80.5839 98.1467 80.7605 98.035C80.9389 97.9217 81.1547 97.865 81.408 97.865C81.6464 97.865 81.853 97.9175 82.028 98.0225C82.2047 98.1258 82.3414 98.2783 82.438 98.48C82.5347 98.6817 82.583 98.9275 82.583 99.2175C82.583 99.4808 82.538 99.7125 82.448 99.9125C82.3597 100.112 82.228 100.269 82.053 100.382C81.8797 100.494 81.6647 100.55 81.408 100.55ZM81.408 100.185C81.563 100.185 81.6939 100.146 81.8005 100.067C81.9072 99.9892 81.988 99.8767 82.043 99.73C82.098 99.5833 82.1255 99.4092 82.1255 99.2075C82.1255 99.0225 82.1014 98.8567 82.053 98.71C82.0047 98.5617 81.9272 98.4442 81.8205 98.3575C81.7155 98.2708 81.578 98.2275 81.408 98.2275C81.2514 98.2275 81.1189 98.2667 81.0105 98.345C80.9022 98.4217 80.8197 98.5333 80.763 98.68C80.708 98.8267 80.6805 99.0025 80.6805 99.2075C80.6805 99.3892 80.7055 99.5542 80.7555 99.7025C80.8055 99.8508 80.8839 99.9683 80.9905 100.055C81.0972 100.142 81.2364 100.185 81.408 100.185ZM84.2182 97.865C84.4032 97.865 84.5698 97.9008 84.7182 97.9725C84.8665 98.0425 84.9873 98.1425 85.0807 98.2725C85.1757 98.4025 85.2348 98.5558 85.2582 98.7325H84.8482C84.8332 98.6425 84.7982 98.56 84.7432 98.485C84.6898 98.41 84.619 98.35 84.5307 98.305C84.4423 98.26 84.339 98.2375 84.2207 98.2375C83.999 98.2375 83.819 98.3175 83.6807 98.4775C83.5423 98.6375 83.4732 98.8825 83.4732 99.2125C83.4732 99.5108 83.5365 99.75 83.6632 99.93C83.7915 100.108 83.9798 100.197 84.2282 100.197C84.3465 100.197 84.449 100.175 84.5357 100.13C84.624 100.083 84.6948 100.022 84.7482 99.9475C84.8015 99.8708 84.8357 99.7892 84.8507 99.7025H85.2532C85.2315 99.8758 85.1732 100.026 85.0782 100.152C84.9832 100.279 84.8615 100.377 84.7132 100.447C84.5665 100.516 84.4015 100.55 84.2182 100.55C83.9865 100.55 83.7807 100.499 83.6007 100.397C83.4223 100.296 83.2823 100.146 83.1807 99.9475C83.079 99.7492 83.0282 99.5058 83.0282 99.2175C83.0282 98.9475 83.074 98.7117 83.1657 98.51C83.259 98.3067 83.394 98.1483 83.5707 98.035C83.749 97.9217 83.9648 97.865 84.2182 97.865ZM86.2135 99.315C86.2135 99.4783 86.2401 99.6267 86.2935 99.76C86.3485 99.8917 86.431 99.9967 86.541 100.075C86.6526 100.153 86.7918 100.192 86.9585 100.192C87.1235 100.192 87.2651 100.154 87.3835 100.077C87.5035 100.001 87.5801 99.89 87.6135 99.745H88.051C88.0193 99.92 87.9493 100.067 87.841 100.188C87.7326 100.307 87.6018 100.398 87.4485 100.46C87.2951 100.52 87.1351 100.55 86.9685 100.55C86.7268 100.55 86.5143 100.498 86.331 100.392C86.1476 100.287 86.0043 100.137 85.901 99.94C85.7976 99.7433 85.746 99.5075 85.746 99.2325C85.746 98.9608 85.7926 98.7225 85.886 98.5175C85.9793 98.3125 86.1143 98.1525 86.291 98.0375C86.4693 97.9225 86.6835 97.865 86.9335 97.865C87.1768 97.865 87.3826 97.9175 87.551 98.0225C87.7193 98.1275 87.8468 98.2758 87.9335 98.4675C88.0218 98.6575 88.066 98.8833 88.066 99.145V99.315H86.2135ZM86.216 99.0025H87.621C87.621 98.8542 87.596 98.7208 87.546 98.6025C87.496 98.4825 87.4193 98.3883 87.316 98.32C87.2143 98.25 87.086 98.215 86.931 98.215C86.7693 98.215 86.6351 98.2542 86.5285 98.3325C86.4235 98.4092 86.3443 98.5083 86.291 98.63C86.2393 98.75 86.2143 98.8742 86.216 99.0025ZM89.5988 100.55C89.4188 100.55 89.2513 100.523 89.0963 100.467C88.943 100.411 88.8155 100.323 88.7138 100.205C88.6122 100.085 88.548 99.9325 88.5213 99.7475H88.9413C88.9647 99.8492 89.0063 99.9342 89.0663 100.002C89.128 100.069 89.2047 100.12 89.2963 100.155C89.388 100.188 89.488 100.205 89.5963 100.205C89.7697 100.205 89.9097 100.172 90.0163 100.107C90.123 100.042 90.1763 99.9425 90.1763 99.8075C90.1763 99.7125 90.148 99.6367 90.0913 99.58C90.0363 99.5217 89.9505 99.4792 89.8338 99.4525L89.2988 99.32C89.0905 99.27 88.9238 99.1917 88.7988 99.085C88.6738 98.9783 88.6113 98.8292 88.6113 98.6375C88.6097 98.4858 88.6455 98.3525 88.7188 98.2375C88.7922 98.1225 88.9022 98.0317 89.0488 97.965C89.1955 97.8983 89.378 97.865 89.5963 97.865C89.8763 97.865 90.1022 97.9283 90.2738 98.055C90.4472 98.18 90.5372 98.3642 90.5438 98.6075H90.1363C90.1197 98.4842 90.0638 98.3867 89.9688 98.315C89.8755 98.2417 89.7497 98.205 89.5913 98.205C89.4263 98.205 89.2922 98.2383 89.1888 98.305C89.0855 98.37 89.0338 98.4717 89.0338 98.61C89.0338 98.7017 89.0705 98.7742 89.1438 98.8275C89.2172 98.8792 89.3255 98.9225 89.4688 98.9575L89.9863 99.0875C90.1063 99.1192 90.2047 99.1608 90.2813 99.2125C90.3597 99.2642 90.4213 99.3217 90.4663 99.385C90.513 99.4483 90.5455 99.515 90.5638 99.585C90.5838 99.6533 90.5938 99.7192 90.5938 99.7825C90.5938 99.9408 90.5538 100.077 90.4738 100.192C90.3955 100.306 90.2822 100.394 90.1338 100.457C89.9872 100.519 89.8088 100.55 89.5988 100.55ZM92.1135 100.55C91.9335 100.55 91.766 100.523 91.611 100.467C91.4576 100.411 91.3301 100.323 91.2285 100.205C91.1268 100.085 91.0626 99.9325 91.036 99.7475H91.456C91.4793 99.8492 91.521 99.9342 91.581 100.002C91.6426 100.069 91.7193 100.12 91.811 100.155C91.9026 100.188 92.0026 100.205 92.111 100.205C92.2843 100.205 92.4243 100.172 92.531 100.107C92.6376 100.042 92.691 99.9425 92.691 99.8075C92.691 99.7125 92.6626 99.6367 92.606 99.58C92.551 99.5217 92.4651 99.4792 92.3485 99.4525L91.8135 99.32C91.6051 99.27 91.4385 99.1917 91.3135 99.085C91.1885 98.9783 91.126 98.8292 91.126 98.6375C91.1243 98.4858 91.1601 98.3525 91.2335 98.2375C91.3068 98.1225 91.4168 98.0317 91.5635 97.965C91.7101 97.8983 91.8926 97.865 92.111 97.865C92.391 97.865 92.6168 97.9283 92.7885 98.055C92.9618 98.18 93.0518 98.3642 93.0585 98.6075H92.651C92.6343 98.4842 92.5785 98.3867 92.4835 98.315C92.3901 98.2417 92.2643 98.205 92.106 98.205C91.941 98.205 91.8068 98.2383 91.7035 98.305C91.6001 98.37 91.5485 98.4717 91.5485 98.61C91.5485 98.7017 91.5851 98.7742 91.6585 98.8275C91.7318 98.8792 91.8401 98.9225 91.9835 98.9575L92.501 99.0875C92.621 99.1192 92.7193 99.1608 92.796 99.2125C92.8743 99.2642 92.936 99.3217 92.981 99.385C93.0276 99.4483 93.0601 99.515 93.0785 99.585C93.0985 99.6533 93.1085 99.7192 93.1085 99.7825C93.1085 99.9408 93.0685 100.077 92.9885 100.192C92.9101 100.306 92.7968 100.394 92.6485 100.457C92.5018 100.519 92.3235 100.55 92.1135 100.55ZM94.0846 99.315C94.0846 99.4783 94.1112 99.6267 94.1646 99.76C94.2196 99.8917 94.3021 99.9967 94.4121 100.075C94.5237 100.153 94.6629 100.192 94.8296 100.192C94.9946 100.192 95.1362 100.154 95.2546 100.077C95.3746 100.001 95.4512 99.89 95.4846 99.745H95.9221C95.8904 99.92 95.8204 100.067 95.7121 100.188C95.6037 100.307 95.4729 100.398 95.3196 100.46C95.1662 100.52 95.0062 100.55 94.8396 100.55C94.5979 100.55 94.3854 100.498 94.2021 100.392C94.0187 100.287 93.8754 100.137 93.7721 99.94C93.6687 99.7433 93.6171 99.5075 93.6171 99.2325C93.6171 98.9608 93.6637 98.7225 93.7571 98.5175C93.8504 98.3125 93.9854 98.1525 94.1621 98.0375C94.3404 97.9225 94.5546 97.865 94.8046 97.865C95.0479 97.865 95.2537 97.9175 95.4221 98.0225C95.5904 98.1275 95.7179 98.2758 95.8046 98.4675C95.8929 98.6575 95.9371 98.8833 95.9371 99.145V99.315H94.0846ZM94.0871 99.0025H95.4921C95.4921 98.8542 95.4671 98.7208 95.4171 98.6025C95.3671 98.4825 95.2904 98.3883 95.1871 98.32C95.0854 98.25 94.9571 98.215 94.8021 98.215C94.6404 98.215 94.5062 98.2542 94.3996 98.3325C94.2946 98.4092 94.2154 98.5083 94.1621 98.63C94.1104 98.75 94.0854 98.8742 94.0871 99.0025ZM97.5045 100.55C97.1695 100.55 96.9036 100.435 96.707 100.205C96.5103 99.975 96.412 99.6392 96.412 99.1975C96.412 98.9292 96.4511 98.695 96.5295 98.495C96.6095 98.295 96.7278 98.14 96.8845 98.03C97.0411 97.92 97.2361 97.865 97.4695 97.865C97.5928 97.865 97.702 97.8808 97.797 97.9125C97.8936 97.9442 97.977 97.9842 98.047 98.0325C98.117 98.0808 98.1736 98.1308 98.217 98.1825C98.262 98.2342 98.2953 98.2817 98.317 98.325V96.785H98.782V100.5H98.4295L98.3795 99.97C98.3628 100.02 98.3361 100.078 98.2995 100.145C98.2628 100.21 98.2111 100.274 98.1445 100.337C98.0778 100.399 97.992 100.45 97.887 100.49C97.7836 100.53 97.6561 100.55 97.5045 100.55ZM97.587 100.195C97.8486 100.195 98.0353 100.116 98.147 99.9575C98.2603 99.7975 98.317 99.5367 98.317 99.175C98.3153 98.9733 98.2895 98.8017 98.2395 98.66C98.1911 98.5183 98.1145 98.4108 98.0095 98.3375C97.9061 98.2625 97.7686 98.225 97.597 98.225C97.3836 98.225 97.2103 98.3008 97.077 98.4525C96.9436 98.6042 96.877 98.845 96.877 99.175C96.877 99.4983 96.937 99.7492 97.057 99.9275C97.1786 100.106 97.3553 100.195 97.587 100.195ZM99.4381 100.5V99.91H99.9881V100.5H99.4381ZM22.115 104.31V103.885H24.85V104.31H23.7475V107.5H23.2825V104.31H22.115ZM25.3513 107.5V103.785H25.8013V105.295C25.8446 105.223 25.9029 105.157 25.9763 105.095C26.0496 105.032 26.1388 104.981 26.2438 104.942C26.3488 104.902 26.4704 104.882 26.6088 104.882C26.7771 104.882 26.9296 104.914 27.0663 104.977C27.2029 105.039 27.3113 105.127 27.3913 105.242C27.4713 105.357 27.5113 105.494 27.5113 105.652V107.5H27.0488V105.745C27.0488 105.59 26.9954 105.471 26.8888 105.387C26.7838 105.302 26.6463 105.26 26.4763 105.26C26.3613 105.26 26.2529 105.279 26.1513 105.317C26.0496 105.354 25.9671 105.411 25.9038 105.487C25.8421 105.562 25.8113 105.658 25.8113 105.775V107.5H25.3513ZM28.5621 106.315C28.5621 106.478 28.5888 106.627 28.6421 106.76C28.6971 106.892 28.7796 106.997 28.8896 107.075C29.0013 107.153 29.1404 107.192 29.3071 107.192C29.4721 107.192 29.6138 107.154 29.7321 107.077C29.8521 107.001 29.9288 106.89 29.9621 106.745H30.3996C30.3679 106.92 30.2979 107.067 30.1896 107.188C30.0813 107.307 29.9504 107.398 29.7971 107.46C29.6438 107.52 29.4838 107.55 29.3171 107.55C29.0754 107.55 28.8629 107.498 28.6796 107.392C28.4963 107.287 28.3529 107.137 28.2496 106.94C28.1463 106.743 28.0946 106.507 28.0946 106.232C28.0946 105.961 28.1413 105.722 28.2346 105.517C28.3279 105.312 28.4629 105.152 28.6396 105.037C28.8179 104.922 29.0321 104.865 29.2821 104.865C29.5254 104.865 29.7313 104.917 29.8996 105.022C30.0679 105.127 30.1954 105.276 30.2821 105.467C30.3704 105.657 30.4146 105.883 30.4146 106.145V106.315H28.5621ZM28.5646 106.002H29.9696C29.9696 105.854 29.9446 105.721 29.8946 105.602C29.8446 105.482 29.7679 105.388 29.6646 105.32C29.5629 105.25 29.4346 105.215 29.2796 105.215C29.1179 105.215 28.9838 105.254 28.8771 105.332C28.7721 105.409 28.6929 105.508 28.6396 105.63C28.5879 105.75 28.5629 105.874 28.5646 106.002ZM33.481 105.252H32.8985V106.86C32.8985 106.952 32.9076 107.019 32.926 107.062C32.946 107.104 32.9785 107.131 33.0235 107.142C33.0701 107.154 33.1335 107.16 33.2135 107.16H33.496V107.47C33.4643 107.482 33.416 107.492 33.351 107.5C33.2876 107.508 33.2085 107.513 33.1135 107.513C32.9351 107.513 32.7968 107.488 32.6985 107.44C32.6001 107.392 32.531 107.32 32.491 107.225C32.4526 107.13 32.4335 107.013 32.4335 106.875V105.252H32.0135V104.915H32.446L32.5585 104.162H32.8985V104.912H33.481V105.252ZM35.1043 107.55C34.866 107.55 34.6577 107.499 34.4793 107.397C34.301 107.294 34.1627 107.143 34.0643 106.945C33.966 106.747 33.9168 106.504 33.9168 106.217C33.9168 105.947 33.9627 105.711 34.0543 105.507C34.146 105.304 34.2802 105.147 34.4568 105.035C34.6352 104.922 34.851 104.865 35.1043 104.865C35.3427 104.865 35.5493 104.917 35.7243 105.022C35.901 105.126 36.0377 105.278 36.1343 105.48C36.231 105.682 36.2793 105.927 36.2793 106.217C36.2793 106.481 36.2343 106.712 36.1443 106.912C36.056 107.112 35.9243 107.269 35.7493 107.382C35.576 107.494 35.361 107.55 35.1043 107.55ZM35.1043 107.185C35.2593 107.185 35.3902 107.146 35.4968 107.067C35.6035 106.989 35.6843 106.877 35.7393 106.73C35.7943 106.583 35.8218 106.409 35.8218 106.207C35.8218 106.022 35.7977 105.857 35.7493 105.71C35.701 105.562 35.6235 105.444 35.5168 105.357C35.4118 105.271 35.2743 105.227 35.1043 105.227C34.9477 105.227 34.8152 105.267 34.7068 105.345C34.5985 105.422 34.516 105.533 34.4593 105.68C34.4043 105.827 34.3768 106.002 34.3768 106.207C34.3768 106.389 34.4018 106.554 34.4518 106.702C34.5018 106.851 34.5802 106.968 34.6868 107.055C34.7935 107.142 34.9327 107.185 35.1043 107.185ZM38.1148 105.252H37.5323V106.86C37.5323 106.952 37.5414 107.019 37.5598 107.062C37.5798 107.104 37.6123 107.131 37.6573 107.142C37.7039 107.154 37.7673 107.16 37.8473 107.16H38.1298V107.47C38.0981 107.482 38.0498 107.492 37.9848 107.5C37.9214 107.508 37.8423 107.513 37.7473 107.513C37.5689 107.513 37.4306 107.488 37.3323 107.44C37.2339 107.392 37.1648 107.32 37.1248 107.225C37.0864 107.13 37.0673 107.013 37.0673 106.875V105.252H36.6473V104.915H37.0798L37.1923 104.162H37.5323V104.912H38.1148V105.252ZM39.4745 107.55C39.3078 107.55 39.1603 107.521 39.032 107.462C38.9036 107.402 38.8028 107.317 38.7295 107.205C38.6578 107.093 38.622 106.958 38.622 106.8C38.622 106.513 38.722 106.3 38.922 106.16C39.122 106.02 39.4428 105.945 39.8845 105.935L40.347 105.922V105.72C40.347 105.562 40.2995 105.437 40.2045 105.345C40.1095 105.252 39.962 105.205 39.762 105.205C39.6136 105.207 39.4828 105.242 39.3695 105.31C39.2578 105.378 39.1853 105.49 39.152 105.645H38.7445C38.7545 105.477 38.802 105.335 38.887 105.22C38.972 105.103 39.0903 105.015 39.242 104.955C39.3953 104.895 39.5761 104.865 39.7845 104.865C40.0095 104.865 40.1961 104.897 40.3445 104.96C40.4945 105.023 40.6061 105.117 40.6795 105.24C40.7545 105.363 40.792 105.515 40.792 105.695V107.5H40.397L40.3645 107.015C40.2645 107.217 40.137 107.357 39.982 107.435C39.8286 107.512 39.6595 107.55 39.4745 107.55ZM39.6145 107.217C39.7011 107.217 39.787 107.202 39.872 107.17C39.9586 107.138 40.0378 107.096 40.1095 107.042C40.1811 106.987 40.2378 106.927 40.2795 106.86C40.3228 106.792 40.3453 106.722 40.347 106.65V106.207L39.962 106.215C39.7653 106.218 39.6003 106.238 39.467 106.275C39.3353 106.312 39.2361 106.369 39.1695 106.447C39.1045 106.526 39.072 106.628 39.072 106.755C39.072 106.9 39.122 107.013 39.222 107.095C39.3236 107.177 39.4545 107.217 39.6145 107.217ZM42.2342 107.533C42.0942 107.533 41.9809 107.513 41.8942 107.475C41.8092 107.437 41.7434 107.385 41.6967 107.32C41.6517 107.255 41.6209 107.181 41.6042 107.097C41.5892 107.012 41.5817 106.925 41.5817 106.835V103.785H42.0367V106.79C42.0367 106.92 42.0617 107.017 42.1117 107.082C42.1634 107.147 42.2351 107.183 42.3267 107.19L42.4667 107.192V107.492C42.4284 107.504 42.3884 107.513 42.3467 107.52C42.3051 107.528 42.2676 107.533 42.2342 107.533ZM44.9383 107.55C44.7717 107.55 44.6242 107.521 44.4958 107.462C44.3675 107.402 44.2667 107.317 44.1933 107.205C44.1217 107.093 44.0858 106.958 44.0858 106.8C44.0858 106.513 44.1858 106.3 44.3858 106.16C44.5858 106.02 44.9067 105.945 45.3483 105.935L45.8108 105.922V105.72C45.8108 105.562 45.7633 105.437 45.6683 105.345C45.5733 105.252 45.4258 105.205 45.2258 105.205C45.0775 105.207 44.9467 105.242 44.8333 105.31C44.7217 105.378 44.6492 105.49 44.6158 105.645H44.2083C44.2183 105.477 44.2658 105.335 44.3508 105.22C44.4358 105.103 44.5542 105.015 44.7058 104.955C44.8592 104.895 45.04 104.865 45.2483 104.865C45.4733 104.865 45.66 104.897 45.8083 104.96C45.9583 105.023 46.07 105.117 46.1433 105.24C46.2183 105.363 46.2558 105.515 46.2558 105.695V107.5H45.8608L45.8283 107.015C45.7283 107.217 45.6008 107.357 45.4458 107.435C45.2925 107.512 45.1233 107.55 44.9383 107.55ZM45.0783 107.217C45.165 107.217 45.2508 107.202 45.3358 107.17C45.4225 107.138 45.5017 107.096 45.5733 107.042C45.645 106.987 45.7017 106.927 45.7433 106.86C45.7867 106.792 45.8092 106.722 45.8108 106.65V106.207L45.4258 106.215C45.2292 106.218 45.0642 106.238 44.9308 106.275C44.7992 106.312 44.7 106.369 44.6333 106.447C44.5683 106.526 44.5358 106.628 44.5358 106.755C44.5358 106.9 44.5858 107.013 44.6858 107.095C44.7875 107.177 44.9183 107.217 45.0783 107.217ZM47.0456 107.5V104.915H47.4906V105.29C47.5623 105.177 47.6606 105.077 47.7856 104.992C47.9106 104.907 48.0731 104.865 48.2731 104.865C48.3664 104.865 48.4614 104.881 48.5581 104.912C48.6564 104.944 48.7464 104.992 48.8281 105.055C48.9098 105.118 48.9731 105.196 49.0181 105.287C49.0981 105.161 49.2064 105.059 49.3431 104.982C49.4798 104.904 49.6339 104.865 49.8056 104.865C49.8956 104.865 49.9898 104.879 50.0881 104.907C50.1864 104.934 50.2773 104.982 50.3606 105.052C50.4456 105.121 50.5148 105.217 50.5681 105.34C50.6214 105.462 50.6481 105.618 50.6481 105.81V107.5H50.1831V105.855C50.1831 105.698 50.1581 105.577 50.1081 105.492C50.0581 105.406 49.9923 105.345 49.9106 105.31C49.8306 105.275 49.7448 105.257 49.6531 105.257C49.5731 105.257 49.4881 105.273 49.3981 105.305C49.3081 105.337 49.2314 105.39 49.1681 105.465C49.1048 105.54 49.0731 105.642 49.0731 105.772V107.5H48.6131V105.72C48.6131 105.618 48.5856 105.533 48.5306 105.465C48.4773 105.397 48.4098 105.345 48.3281 105.31C48.2481 105.275 48.1681 105.257 48.0881 105.257C47.9998 105.257 47.9106 105.275 47.8206 105.31C47.7323 105.345 47.6573 105.401 47.5956 105.477C47.5356 105.552 47.5056 105.651 47.5056 105.772V107.5H47.0456ZM52.3993 107.55C52.1609 107.55 51.9526 107.499 51.7743 107.397C51.5959 107.294 51.4576 107.143 51.3593 106.945C51.2609 106.747 51.2118 106.504 51.2118 106.217C51.2118 105.947 51.2576 105.711 51.3493 105.507C51.4409 105.304 51.5751 105.147 51.7518 105.035C51.9301 104.922 52.1459 104.865 52.3993 104.865C52.6376 104.865 52.8443 104.917 53.0193 105.022C53.1959 105.126 53.3326 105.278 53.4293 105.48C53.5259 105.682 53.5743 105.927 53.5743 106.217C53.5743 106.481 53.5293 106.712 53.4393 106.912C53.3509 107.112 53.2193 107.269 53.0443 107.382C52.8709 107.494 52.6559 107.55 52.3993 107.55ZM52.3993 107.185C52.5543 107.185 52.6851 107.146 52.7918 107.067C52.8984 106.989 52.9793 106.877 53.0343 106.73C53.0893 106.583 53.1168 106.409 53.1168 106.207C53.1168 106.022 53.0926 105.857 53.0443 105.71C52.9959 105.562 52.9184 105.444 52.8118 105.357C52.7068 105.271 52.5693 105.227 52.3993 105.227C52.2426 105.227 52.1101 105.267 52.0018 105.345C51.8934 105.422 51.8109 105.533 51.7543 105.68C51.6993 105.827 51.6718 106.002 51.6718 106.207C51.6718 106.389 51.6968 106.554 51.7468 106.702C51.7968 106.851 51.8751 106.968 51.9818 107.055C52.0884 107.142 52.2276 107.185 52.3993 107.185ZM55.0854 107.55C54.9504 107.548 54.8229 107.529 54.7029 107.492C54.5846 107.454 54.4796 107.398 54.3879 107.325C54.2963 107.252 54.2238 107.161 54.1704 107.052C54.1188 106.942 54.0929 106.815 54.0929 106.67V104.915H54.5554V106.622C54.5554 106.791 54.6071 106.927 54.7104 107.032C54.8154 107.137 54.9729 107.19 55.1829 107.19C55.3729 107.19 55.5254 107.141 55.6404 107.042C55.7571 106.942 55.8154 106.794 55.8154 106.597V104.915H56.2754V107.5H55.9079L55.8604 107.005C55.8288 107.135 55.7746 107.24 55.6979 107.32C55.6229 107.4 55.5321 107.459 55.4254 107.497C55.3204 107.534 55.2071 107.552 55.0854 107.55ZM57.0309 107.5V104.915H57.4784V105.29C57.5201 105.218 57.5776 105.151 57.6509 105.087C57.7259 105.024 57.8159 104.973 57.9209 104.935C58.0276 104.897 58.1501 104.877 58.2884 104.877C58.4518 104.877 58.6018 104.91 58.7384 104.975C58.8768 105.04 58.9868 105.142 59.0684 105.28C59.1518 105.417 59.1934 105.593 59.1934 105.81V107.5H58.7309V105.855C58.7309 105.653 58.6776 105.504 58.5709 105.407C58.4659 105.309 58.3293 105.26 58.1609 105.26C58.0443 105.26 57.9351 105.279 57.8334 105.317C57.7318 105.354 57.6493 105.411 57.5859 105.487C57.5226 105.562 57.4909 105.657 57.4909 105.772V107.5H57.0309ZM61.1079 105.252H60.5254V106.86C60.5254 106.952 60.5346 107.019 60.5529 107.062C60.5729 107.104 60.6054 107.131 60.6504 107.142C60.6971 107.154 60.7604 107.16 60.8404 107.16H61.1229V107.47C61.0913 107.482 61.0429 107.492 60.9779 107.5C60.9146 107.508 60.8354 107.513 60.7404 107.513C60.5621 107.513 60.4238 107.488 60.3254 107.44C60.2271 107.392 60.1579 107.32 60.1179 107.225C60.0796 107.13 60.0604 107.013 60.0604 106.875V105.252H59.6404V104.915H60.0729L60.1854 104.162H60.5254V104.912H61.1079V105.252ZM63.7935 107.55C63.4585 107.55 63.1927 107.435 62.996 107.205C62.7993 106.975 62.701 106.639 62.701 106.197C62.701 105.929 62.7402 105.695 62.8185 105.495C62.8985 105.295 63.0168 105.14 63.1735 105.03C63.3302 104.92 63.5252 104.865 63.7585 104.865C63.8818 104.865 63.991 104.881 64.086 104.912C64.1827 104.944 64.266 104.984 64.336 105.032C64.406 105.081 64.4627 105.131 64.506 105.182C64.551 105.234 64.5843 105.282 64.606 105.325V103.785H65.071V107.5H64.7185L64.6685 106.97C64.6518 107.02 64.6252 107.078 64.5885 107.145C64.5518 107.21 64.5002 107.274 64.4335 107.337C64.3668 107.399 64.281 107.45 64.176 107.49C64.0727 107.53 63.9452 107.55 63.7935 107.55ZM63.876 107.195C64.1377 107.195 64.3243 107.116 64.436 106.957C64.5493 106.797 64.606 106.537 64.606 106.175C64.6043 105.973 64.5785 105.802 64.5285 105.66C64.4802 105.518 64.4035 105.411 64.2985 105.337C64.1952 105.262 64.0577 105.225 63.886 105.225C63.6727 105.225 63.4993 105.301 63.366 105.452C63.2327 105.604 63.166 105.845 63.166 106.175C63.166 106.498 63.226 106.749 63.346 106.927C63.4677 107.106 63.6443 107.195 63.876 107.195ZM66.1646 106.315C66.1646 106.478 66.1913 106.627 66.2446 106.76C66.2996 106.892 66.3821 106.997 66.4921 107.075C66.6038 107.153 66.743 107.192 66.9096 107.192C67.0746 107.192 67.2163 107.154 67.3346 107.077C67.4546 107.001 67.5313 106.89 67.5646 106.745H68.0021C67.9705 106.92 67.9005 107.067 67.7921 107.188C67.6838 107.307 67.553 107.398 67.3996 107.46C67.2463 107.52 67.0863 107.55 66.9196 107.55C66.678 107.55 66.4655 107.498 66.2821 107.392C66.0988 107.287 65.9555 107.137 65.8521 106.94C65.7488 106.743 65.6971 106.507 65.6971 106.232C65.6971 105.961 65.7438 105.722 65.8371 105.517C65.9305 105.312 66.0655 105.152 66.2421 105.037C66.4205 104.922 66.6346 104.865 66.8846 104.865C67.128 104.865 67.3338 104.917 67.5021 105.022C67.6705 105.127 67.798 105.276 67.8846 105.467C67.973 105.657 68.0171 105.883 68.0171 106.145V106.315H66.1646ZM66.1671 106.002H67.5721C67.5721 105.854 67.5471 105.721 67.4971 105.602C67.4471 105.482 67.3705 105.388 67.2671 105.32C67.1655 105.25 67.0371 105.215 66.8821 105.215C66.7205 105.215 66.5863 105.254 66.4796 105.332C66.3746 105.409 66.2955 105.508 66.2421 105.63C66.1905 105.75 66.1655 105.874 66.1671 106.002ZM69.5845 107.55C69.2495 107.55 68.9837 107.435 68.787 107.205C68.5904 106.975 68.492 106.639 68.492 106.197C68.492 105.929 68.5312 105.695 68.6095 105.495C68.6895 105.295 68.8079 105.14 68.9645 105.03C69.1212 104.92 69.3162 104.865 69.5495 104.865C69.6729 104.865 69.782 104.881 69.877 104.912C69.9737 104.944 70.057 104.984 70.127 105.032C70.197 105.081 70.2537 105.131 70.297 105.182C70.342 105.234 70.3754 105.282 70.397 105.325V103.785H70.862V107.5H70.5095L70.4595 106.97C70.4429 107.02 70.4162 107.078 70.3795 107.145C70.3429 107.21 70.2912 107.274 70.2245 107.337C70.1579 107.399 70.072 107.45 69.967 107.49C69.8637 107.53 69.7362 107.55 69.5845 107.55ZM69.667 107.195C69.9287 107.195 70.1154 107.116 70.227 106.957C70.3404 106.797 70.397 106.537 70.397 106.175C70.3954 105.973 70.3695 105.802 70.3195 105.66C70.2712 105.518 70.1945 105.411 70.0895 105.337C69.9862 105.262 69.8487 105.225 69.677 105.225C69.4637 105.225 69.2904 105.301 69.157 105.452C69.0237 105.604 68.957 105.845 68.957 106.175C68.957 106.498 69.017 106.749 69.137 106.927C69.2587 107.106 69.4354 107.195 69.667 107.195ZM72.5757 107.55C72.4407 107.548 72.3132 107.529 72.1932 107.492C72.0748 107.454 71.9698 107.398 71.8782 107.325C71.7865 107.252 71.714 107.161 71.6607 107.052C71.609 106.942 71.5832 106.815 71.5832 106.67V104.915H72.0457V106.622C72.0457 106.791 72.0973 106.927 72.2007 107.032C72.3057 107.137 72.4632 107.19 72.6732 107.19C72.8632 107.19 73.0157 107.141 73.1307 107.042C73.2473 106.942 73.3057 106.794 73.3057 106.597V104.915H73.7657V107.5H73.3982L73.3507 107.005C73.319 107.135 73.2648 107.24 73.1882 107.32C73.1132 107.4 73.0223 107.459 72.9157 107.497C72.8107 107.534 72.6973 107.552 72.5757 107.55ZM75.517 104.865C75.702 104.865 75.8687 104.901 76.017 104.972C76.1653 105.042 76.2862 105.142 76.3795 105.272C76.4745 105.402 76.5337 105.556 76.557 105.732H76.147C76.132 105.642 76.097 105.56 76.042 105.485C75.9887 105.41 75.9178 105.35 75.8295 105.305C75.7412 105.26 75.6378 105.237 75.5195 105.237C75.2978 105.237 75.1178 105.317 74.9795 105.477C74.8412 105.637 74.772 105.882 74.772 106.212C74.772 106.511 74.8353 106.75 74.962 106.93C75.0903 107.108 75.2787 107.197 75.527 107.197C75.6453 107.197 75.7478 107.175 75.8345 107.13C75.9228 107.083 75.9937 107.022 76.047 106.947C76.1003 106.871 76.1345 106.789 76.1495 106.702H76.552C76.5303 106.876 76.472 107.026 76.377 107.152C76.282 107.279 76.1603 107.377 76.012 107.447C75.8653 107.516 75.7003 107.55 75.517 107.55C75.2853 107.55 75.0795 107.499 74.8995 107.397C74.7212 107.296 74.5812 107.146 74.4795 106.947C74.3778 106.749 74.327 106.506 74.327 106.217C74.327 105.947 74.3728 105.712 74.4645 105.51C74.5578 105.307 74.6928 105.148 74.8695 105.035C75.0478 104.922 75.2637 104.865 75.517 104.865ZM78.4126 105.252H77.8301V106.86C77.8301 106.952 77.8393 107.019 77.8576 107.062C77.8776 107.104 77.9101 107.131 77.9551 107.142C78.0018 107.154 78.0651 107.16 78.1451 107.16H78.4276V107.47C78.396 107.482 78.3476 107.492 78.2826 107.5C78.2193 107.508 78.1401 107.513 78.0451 107.513C77.8668 107.513 77.7285 107.488 77.6301 107.44C77.5318 107.392 77.4626 107.32 77.4226 107.225C77.3843 107.13 77.3651 107.013 77.3651 106.875V105.252H76.9451V104.915H77.3776L77.4901 104.162H77.8301V104.912H78.4126V105.252ZM79.3385 106.315C79.3385 106.478 79.3651 106.627 79.4185 106.76C79.4735 106.892 79.556 106.997 79.666 107.075C79.7776 107.153 79.9168 107.192 80.0835 107.192C80.2485 107.192 80.3901 107.154 80.5085 107.077C80.6285 107.001 80.7051 106.89 80.7385 106.745H81.176C81.1443 106.92 81.0743 107.067 80.966 107.188C80.8576 107.307 80.7268 107.398 80.5735 107.46C80.4201 107.52 80.2601 107.55 80.0935 107.55C79.8518 107.55 79.6393 107.498 79.456 107.392C79.2726 107.287 79.1293 107.137 79.026 106.94C78.9226 106.743 78.871 106.507 78.871 106.232C78.871 105.961 78.9176 105.722 79.011 105.517C79.1043 105.312 79.2393 105.152 79.416 105.037C79.5943 104.922 79.8085 104.865 80.0585 104.865C80.3018 104.865 80.5076 104.917 80.676 105.022C80.8443 105.127 80.9718 105.276 81.0585 105.467C81.1468 105.657 81.191 105.883 81.191 106.145V106.315H79.3385ZM79.341 106.002H80.746C80.746 105.854 80.721 105.721 80.671 105.602C80.621 105.482 80.5443 105.388 80.441 105.32C80.3393 105.25 80.211 105.215 80.056 105.215C79.8943 105.215 79.7601 105.254 79.6535 105.332C79.5485 105.409 79.4693 105.508 79.416 105.63C79.3643 105.75 79.3393 105.874 79.341 106.002ZM82.7584 107.55C82.4234 107.55 82.1575 107.435 81.9609 107.205C81.7642 106.975 81.6659 106.639 81.6659 106.197C81.6659 105.929 81.705 105.695 81.7834 105.495C81.8634 105.295 81.9817 105.14 82.1384 105.03C82.295 104.92 82.49 104.865 82.7234 104.865C82.8467 104.865 82.9559 104.881 83.0509 104.912C83.1475 104.944 83.2309 104.984 83.3009 105.032C83.3709 105.081 83.4275 105.131 83.4709 105.182C83.5159 105.234 83.5492 105.282 83.5709 105.325V103.785H84.0359V107.5H83.6834L83.6334 106.97C83.6167 107.02 83.59 107.078 83.5534 107.145C83.5167 107.21 83.465 107.274 83.3984 107.337C83.3317 107.399 83.2459 107.45 83.1409 107.49C83.0375 107.53 82.91 107.55 82.7584 107.55ZM82.8409 107.195C83.1025 107.195 83.2892 107.116 83.4009 106.957C83.5142 106.797 83.5709 106.537 83.5709 106.175C83.5692 105.973 83.5434 105.802 83.4934 105.66C83.445 105.518 83.3684 105.411 83.2634 105.337C83.16 105.262 83.0225 105.225 82.8509 105.225C82.6375 105.225 82.4642 105.301 82.3309 105.452C82.1975 105.604 82.1309 105.845 82.1309 106.175C82.1309 106.498 82.1909 106.749 82.3109 106.927C82.4325 107.106 82.6092 107.195 82.8409 107.195ZM87.4118 104.915V105.252H86.7843V107.5H86.3193V105.252H85.7743V104.915H86.3193V104.515C86.3193 104.31 86.3718 104.154 86.4768 104.047C86.5818 103.939 86.7385 103.885 86.9468 103.885H87.4343L87.4368 104.212H87.0493C86.9443 104.212 86.8727 104.241 86.8343 104.297C86.796 104.354 86.7768 104.44 86.7768 104.555V104.915H87.4118ZM87.9831 107.5V104.915H88.4231V105.412C88.4664 105.289 88.5273 105.187 88.6056 105.107C88.6839 105.026 88.7731 104.965 88.8731 104.925C88.9748 104.885 89.0798 104.865 89.1881 104.865C89.2264 104.865 89.2639 104.867 89.3006 104.873C89.3373 104.877 89.3656 104.886 89.3856 104.897V105.345C89.3606 105.333 89.3281 105.326 89.2881 105.322C89.2498 105.317 89.2173 105.315 89.1906 105.315C89.0873 105.308 88.9906 105.315 88.9006 105.335C88.8106 105.353 88.7314 105.386 88.6631 105.432C88.5948 105.479 88.5406 105.541 88.5006 105.617C88.4623 105.692 88.4431 105.784 88.4431 105.892V107.5H87.9831ZM90.8905 107.55C90.6521 107.55 90.4438 107.499 90.2655 107.397C90.0871 107.294 89.9488 107.143 89.8505 106.945C89.7521 106.747 89.703 106.504 89.703 106.217C89.703 105.947 89.7488 105.711 89.8405 105.507C89.9321 105.304 90.0663 105.147 90.243 105.035C90.4213 104.922 90.6371 104.865 90.8905 104.865C91.1288 104.865 91.3355 104.917 91.5105 105.022C91.6871 105.126 91.8238 105.278 91.9205 105.48C92.0171 105.682 92.0655 105.927 92.0655 106.217C92.0655 106.481 92.0205 106.712 91.9305 106.912C91.8421 107.112 91.7105 107.269 91.5355 107.382C91.3621 107.494 91.1471 107.55 90.8905 107.55ZM90.8905 107.185C91.0455 107.185 91.1763 107.146 91.283 107.067C91.3896 106.989 91.4705 106.877 91.5255 106.73C91.5805 106.583 91.608 106.409 91.608 106.207C91.608 106.022 91.5838 105.857 91.5355 105.71C91.4871 105.562 91.4096 105.444 91.303 105.357C91.198 105.271 91.0605 105.227 90.8905 105.227C90.7338 105.227 90.6013 105.267 90.493 105.345C90.3846 105.422 90.3021 105.533 90.2455 105.68C90.1905 105.827 90.163 106.002 90.163 106.207C90.163 106.389 90.188 106.554 90.238 106.702C90.288 106.851 90.3663 106.968 90.473 107.055C90.5796 107.142 90.7188 107.185 90.8905 107.185ZM92.6706 107.5V104.915H93.1156V105.29C93.1873 105.177 93.2856 105.077 93.4106 104.992C93.5356 104.907 93.6981 104.865 93.8981 104.865C93.9914 104.865 94.0864 104.881 94.1831 104.912C94.2814 104.944 94.3714 104.992 94.4531 105.055C94.5348 105.118 94.5981 105.196 94.6431 105.287C94.7231 105.161 94.8314 105.059 94.9681 104.982C95.1048 104.904 95.2589 104.865 95.4306 104.865C95.5206 104.865 95.6148 104.879 95.7131 104.907C95.8114 104.934 95.9023 104.982 95.9856 105.052C96.0706 105.121 96.1398 105.217 96.1931 105.34C96.2464 105.462 96.2731 105.618 96.2731 105.81V107.5H95.8081V105.855C95.8081 105.698 95.7831 105.577 95.7331 105.492C95.6831 105.406 95.6173 105.345 95.5356 105.31C95.4556 105.275 95.3698 105.257 95.2781 105.257C95.1981 105.257 95.1131 105.273 95.0231 105.305C94.9331 105.337 94.8564 105.39 94.7931 105.465C94.7298 105.54 94.6981 105.642 94.6981 105.772V107.5H94.2381V105.72C94.2381 105.618 94.2106 105.533 94.1556 105.465C94.1023 105.397 94.0348 105.345 93.9531 105.31C93.8731 105.275 93.7931 105.257 93.7131 105.257C93.6248 105.257 93.5356 105.275 93.4456 105.31C93.3573 105.345 93.2823 105.401 93.2206 105.477C93.1606 105.552 93.1306 105.651 93.1306 105.772V107.5H92.6706ZM98.3699 108.325C98.2183 108.325 98.1141 108.314 98.0574 108.293C98.0008 108.271 97.9724 108.26 97.9724 108.26V107.96L98.2349 107.965C98.3316 107.968 98.4116 107.962 98.4749 107.945C98.5383 107.928 98.5891 107.906 98.6274 107.878C98.6658 107.849 98.6949 107.818 98.7149 107.783C98.7366 107.748 98.7541 107.714 98.7674 107.683L98.8574 107.437L97.8474 104.915H98.3149L99.0774 106.91L99.8349 104.915H100.287L99.1974 107.695C99.1308 107.858 99.0558 107.986 98.9724 108.078C98.8908 108.169 98.7991 108.233 98.6974 108.27C98.5974 108.307 98.4883 108.325 98.3699 108.325ZM101.716 107.55C101.477 107.55 101.269 107.499 101.091 107.397C100.912 107.294 100.774 107.143 100.676 106.945C100.577 106.747 100.528 106.504 100.528 106.217C100.528 105.947 100.574 105.711 100.666 105.507C100.757 105.304 100.891 105.147 101.068 105.035C101.246 104.922 101.462 104.865 101.716 104.865C101.954 104.865 102.161 104.917 102.336 105.022C102.512 105.126 102.649 105.278 102.746 105.48C102.842 105.682 102.891 105.927 102.891 106.217C102.891 106.481 102.846 106.712 102.756 106.912C102.667 107.112 102.536 107.269 102.361 107.382C102.187 107.494 101.972 107.55 101.716 107.55ZM101.716 107.185C101.871 107.185 102.001 107.146 102.108 107.067C102.215 106.989 102.296 106.877 102.351 106.73C102.406 106.583 102.433 106.409 102.433 106.207C102.433 106.022 102.409 105.857 102.361 105.71C102.312 105.562 102.235 105.444 102.128 105.357C102.023 105.271 101.886 105.227 101.716 105.227C101.559 105.227 101.426 105.267 101.318 105.345C101.21 105.422 101.127 105.533 101.071 105.68C101.016 105.827 100.988 106.002 100.988 106.207C100.988 106.389 101.013 106.554 101.063 106.702C101.113 106.851 101.191 106.968 101.298 107.055C101.405 107.142 101.544 107.185 101.716 107.185ZM104.402 107.55C104.267 107.548 104.139 107.529 104.019 107.492C103.901 107.454 103.796 107.398 103.704 107.325C103.613 107.252 103.54 107.161 103.487 107.052C103.435 106.942 103.409 106.815 103.409 106.67V104.915H103.872V106.622C103.872 106.791 103.924 106.927 104.027 107.032C104.132 107.137 104.289 107.19 104.499 107.19C104.689 107.19 104.842 107.141 104.957 107.042C105.074 106.942 105.132 106.794 105.132 106.597V104.915H105.592V107.5H105.224L105.177 107.005C105.145 107.135 105.091 107.24 105.014 107.32C104.939 107.4 104.849 107.459 104.742 107.497C104.637 107.534 104.524 107.552 104.402 107.55ZM106.347 107.5V104.915H106.787V105.412C106.831 105.289 106.892 105.187 106.97 105.107C107.048 105.026 107.137 104.965 107.237 104.925C107.339 104.885 107.444 104.865 107.552 104.865C107.591 104.865 107.628 104.867 107.665 104.873C107.702 104.877 107.73 104.886 107.75 104.897V105.345C107.725 105.333 107.692 105.326 107.652 105.322C107.614 105.317 107.582 105.315 107.555 105.315C107.452 105.308 107.355 105.315 107.265 105.335C107.175 105.353 107.096 105.386 107.027 105.432C106.959 105.479 106.905 105.541 106.865 105.617C106.827 105.692 106.807 105.784 106.807 105.892V107.5H106.347ZM23.0975 114.55C22.9308 114.55 22.7833 114.521 22.655 114.462C22.5267 114.402 22.4258 114.317 22.3525 114.205C22.2808 114.093 22.245 113.958 22.245 113.8C22.245 113.513 22.345 113.3 22.545 113.16C22.745 113.02 23.0658 112.945 23.5075 112.935L23.97 112.922V112.72C23.97 112.562 23.9225 112.437 23.8275 112.345C23.7325 112.252 23.585 112.205 23.385 112.205C23.2367 112.207 23.1058 112.242 22.9925 112.31C22.8808 112.378 22.8083 112.49 22.775 112.645H22.3675C22.3775 112.477 22.425 112.335 22.51 112.22C22.595 112.103 22.7133 112.015 22.865 111.955C23.0183 111.895 23.1992 111.865 23.4075 111.865C23.6325 111.865 23.8192 111.897 23.9675 111.96C24.1175 112.023 24.2292 112.117 24.3025 112.24C24.3775 112.363 24.415 112.515 24.415 112.695V114.5H24.02L23.9875 114.015C23.8875 114.217 23.76 114.357 23.605 114.435C23.4517 114.512 23.2825 114.55 23.0975 114.55ZM23.2375 114.217C23.3242 114.217 23.41 114.202 23.495 114.17C23.5817 114.138 23.6608 114.096 23.7325 114.042C23.8042 113.987 23.8608 113.927 23.9025 113.86C23.9458 113.792 23.9683 113.722 23.97 113.65V113.207L23.585 113.215C23.3883 113.218 23.2233 113.238 23.09 113.275C22.9583 113.312 22.8592 113.369 22.7925 113.447C22.7275 113.526 22.695 113.628 22.695 113.755C22.695 113.9 22.745 114.013 22.845 114.095C22.9467 114.177 23.0775 114.217 23.2375 114.217ZM26.2348 111.865C26.4198 111.865 26.5864 111.901 26.7348 111.972C26.8831 112.042 27.0039 112.142 27.0973 112.272C27.1923 112.402 27.2514 112.556 27.2748 112.732H26.8648C26.8498 112.642 26.8148 112.56 26.7598 112.485C26.7064 112.41 26.6356 112.35 26.5473 112.305C26.4589 112.26 26.3556 112.237 26.2373 112.237C26.0156 112.237 25.8356 112.317 25.6973 112.477C25.5589 112.637 25.4898 112.882 25.4898 113.212C25.4898 113.511 25.5531 113.75 25.6798 113.93C25.8081 114.108 25.9964 114.197 26.2448 114.197C26.3631 114.197 26.4656 114.175 26.5523 114.13C26.6406 114.083 26.7114 114.022 26.7648 113.947C26.8181 113.871 26.8523 113.789 26.8673 113.702H27.2698C27.2481 113.876 27.1898 114.026 27.0948 114.152C26.9998 114.279 26.8781 114.377 26.7298 114.447C26.5831 114.516 26.4181 114.55 26.2348 114.55C26.0031 114.55 25.7973 114.499 25.6173 114.397C25.4389 114.296 25.2989 114.146 25.1973 113.947C25.0956 113.749 25.0448 113.506 25.0448 113.217C25.0448 112.947 25.0906 112.712 25.1823 112.51C25.2756 112.307 25.4106 112.148 25.5873 112.035C25.7656 111.922 25.9814 111.865 26.2348 111.865ZM28.9301 111.865C29.1151 111.865 29.2817 111.901 29.4301 111.972C29.5784 112.042 29.6992 112.142 29.7926 112.272C29.8876 112.402 29.9467 112.556 29.9701 112.732H29.5601C29.5451 112.642 29.5101 112.56 29.4551 112.485C29.4017 112.41 29.3309 112.35 29.2426 112.305C29.1542 112.26 29.0509 112.237 28.9326 112.237C28.7109 112.237 28.5309 112.317 28.3926 112.477C28.2542 112.637 28.1851 112.882 28.1851 113.212C28.1851 113.511 28.2484 113.75 28.3751 113.93C28.5034 114.108 28.6917 114.197 28.9401 114.197C29.0584 114.197 29.1609 114.175 29.2476 114.13C29.3359 114.083 29.4067 114.022 29.4601 113.947C29.5134 113.871 29.5476 113.789 29.5626 113.702H29.9651C29.9434 113.876 29.8851 114.026 29.7901 114.152C29.6951 114.279 29.5734 114.377 29.4251 114.447C29.2784 114.516 29.1134 114.55 28.9301 114.55C28.6984 114.55 28.4926 114.499 28.3126 114.397C28.1342 114.296 27.9942 114.146 27.8926 113.947C27.7909 113.749 27.7401 113.506 27.7401 113.217C27.7401 112.947 27.7859 112.712 27.8776 112.51C27.9709 112.307 28.1059 112.148 28.2826 112.035C28.4609 111.922 28.6767 111.865 28.9301 111.865ZM31.6229 114.55C31.3846 114.55 31.1762 114.499 30.9979 114.397C30.8196 114.294 30.6812 114.143 30.5829 113.945C30.4846 113.747 30.4354 113.504 30.4354 113.217C30.4354 112.947 30.4812 112.711 30.5729 112.507C30.6646 112.304 30.7987 112.147 30.9754 112.035C31.1537 111.922 31.3696 111.865 31.6229 111.865C31.8612 111.865 32.0679 111.917 32.2429 112.022C32.4196 112.126 32.5562 112.278 32.6529 112.48C32.7496 112.682 32.7979 112.927 32.7979 113.217C32.7979 113.481 32.7529 113.712 32.6629 113.912C32.5746 114.112 32.4429 114.269 32.2679 114.382C32.0946 114.494 31.8796 114.55 31.6229 114.55ZM31.6229 114.185C31.7779 114.185 31.9087 114.146 32.0154 114.067C32.1221 113.989 32.2029 113.877 32.2579 113.73C32.3129 113.583 32.3404 113.409 32.3404 113.207C32.3404 113.022 32.3162 112.857 32.2679 112.71C32.2196 112.562 32.1421 112.444 32.0354 112.357C31.9304 112.271 31.7929 112.227 31.6229 112.227C31.4662 112.227 31.3337 112.267 31.2254 112.345C31.1171 112.422 31.0346 112.533 30.9779 112.68C30.9229 112.827 30.8954 113.002 30.8954 113.207C30.8954 113.389 30.9204 113.554 30.9704 113.702C31.0204 113.851 31.0987 113.968 31.2054 114.055C31.3121 114.142 31.4512 114.185 31.6229 114.185ZM34.3091 114.55C34.1741 114.548 34.0466 114.529 33.9266 114.492C33.8082 114.454 33.7032 114.398 33.6116 114.325C33.5199 114.252 33.4474 114.161 33.3941 114.052C33.3424 113.942 33.3166 113.815 33.3166 113.67V111.915H33.7791V113.622C33.7791 113.791 33.8307 113.927 33.9341 114.032C34.0391 114.137 34.1966 114.19 34.4066 114.19C34.5966 114.19 34.7491 114.141 34.8641 114.042C34.9807 113.942 35.0391 113.794 35.0391 113.597V111.915H35.4991V114.5H35.1316L35.0841 114.005C35.0524 114.135 34.9982 114.24 34.9216 114.32C34.8466 114.4 34.7557 114.459 34.6491 114.497C34.5441 114.534 34.4307 114.552 34.3091 114.55ZM36.2546 114.5V111.915H36.7021V112.29C36.7437 112.218 36.8012 112.151 36.8746 112.087C36.9496 112.024 37.0396 111.973 37.1446 111.935C37.2512 111.897 37.3737 111.877 37.5121 111.877C37.6754 111.877 37.8254 111.91 37.9621 111.975C38.1004 112.04 38.2104 112.142 38.2921 112.28C38.3754 112.417 38.4171 112.593 38.4171 112.81V114.5H37.9546V112.855C37.9546 112.653 37.9012 112.504 37.7946 112.407C37.6896 112.309 37.5529 112.26 37.3846 112.26C37.2679 112.26 37.1587 112.279 37.0571 112.317C36.9554 112.354 36.8729 112.411 36.8096 112.487C36.7462 112.562 36.7146 112.657 36.7146 112.772V114.5H36.2546ZM40.3316 112.252H39.7491V113.86C39.7491 113.952 39.7582 114.019 39.7766 114.062C39.7966 114.104 39.8291 114.131 39.8741 114.142C39.9207 114.154 39.9841 114.16 40.0641 114.16H40.3466V114.47C40.3149 114.482 40.2666 114.492 40.2016 114.5C40.1382 114.508 40.0591 114.513 39.9641 114.513C39.7857 114.513 39.6474 114.488 39.5491 114.44C39.4507 114.392 39.3816 114.32 39.3416 114.225C39.3032 114.13 39.2841 114.013 39.2841 113.875V112.252H38.8641V111.915H39.2966L39.4091 111.162H39.7491V111.912H40.3316V112.252ZM42.6481 111.915V114.5H42.2006V111.915H42.6481ZM42.6581 110.887V111.367H42.1856V110.887H42.6581ZM44.3791 114.55C44.1991 114.55 44.0316 114.523 43.8766 114.467C43.7233 114.411 43.5958 114.323 43.4941 114.205C43.3924 114.085 43.3283 113.932 43.3016 113.747H43.7216C43.7449 113.849 43.7866 113.934 43.8466 114.002C43.9083 114.069 43.9849 114.12 44.0766 114.155C44.1683 114.188 44.2683 114.205 44.3766 114.205C44.5499 114.205 44.6899 114.172 44.7966 114.107C44.9033 114.042 44.9566 113.942 44.9566 113.807C44.9566 113.712 44.9283 113.637 44.8716 113.58C44.8166 113.522 44.7308 113.479 44.6141 113.452L44.0791 113.32C43.8708 113.27 43.7041 113.192 43.5791 113.085C43.4541 112.978 43.3916 112.829 43.3916 112.637C43.3899 112.486 43.4258 112.352 43.4991 112.237C43.5724 112.122 43.6824 112.032 43.8291 111.965C43.9758 111.898 44.1583 111.865 44.3766 111.865C44.6566 111.865 44.8824 111.928 45.0541 112.055C45.2274 112.18 45.3174 112.364 45.3241 112.607H44.9166C44.8999 112.484 44.8441 112.387 44.7491 112.315C44.6558 112.242 44.5299 112.205 44.3716 112.205C44.2066 112.205 44.0724 112.238 43.9691 112.305C43.8658 112.37 43.8141 112.472 43.8141 112.61C43.8141 112.702 43.8508 112.774 43.9241 112.827C43.9974 112.879 44.1058 112.922 44.2491 112.957L44.7666 113.088C44.8866 113.119 44.9849 113.161 45.0616 113.212C45.1399 113.264 45.2016 113.322 45.2466 113.385C45.2933 113.448 45.3258 113.515 45.3441 113.585C45.3641 113.653 45.3741 113.719 45.3741 113.782C45.3741 113.941 45.3341 114.077 45.2541 114.192C45.1758 114.306 45.0624 114.394 44.9141 114.457C44.7674 114.519 44.5891 114.55 44.3791 114.55ZM49.9948 113.123C49.9948 113.414 49.9473 113.667 49.8523 113.882C49.7573 114.096 49.6031 114.261 49.3898 114.377C49.1781 114.493 48.8973 114.55 48.5473 114.55C48.1956 114.55 47.9139 114.492 47.7023 114.375C47.4906 114.257 47.3373 114.089 47.2423 113.872C47.1489 113.656 47.1023 113.397 47.1023 113.097V110.885H47.8448V113.152C47.8448 113.422 47.9098 113.62 48.0398 113.745C48.1698 113.868 48.3389 113.93 48.5473 113.93C48.6856 113.93 48.8081 113.903 48.9148 113.85C49.0214 113.795 49.1048 113.711 49.1648 113.597C49.2264 113.482 49.2573 113.334 49.2573 113.152V110.885H49.9948V113.123ZM52.0779 114.55C51.8996 114.55 51.7246 114.528 51.5529 114.482C51.3813 114.437 51.2246 114.37 51.0829 114.28C50.9413 114.19 50.8238 114.077 50.7304 113.942C50.6388 113.807 50.5838 113.649 50.5654 113.467H51.3129C51.3379 113.577 51.3854 113.67 51.4554 113.745C51.5254 113.82 51.6138 113.877 51.7204 113.917C51.8271 113.957 51.9454 113.977 52.0754 113.977C52.2088 113.977 52.3304 113.961 52.4404 113.927C52.5504 113.894 52.6388 113.844 52.7054 113.777C52.7721 113.709 52.8054 113.624 52.8054 113.522C52.8054 113.431 52.7779 113.356 52.7229 113.297C52.6696 113.239 52.5971 113.192 52.5054 113.155C52.4138 113.118 52.3096 113.088 52.1929 113.065L51.5679 112.938C51.2946 112.886 51.0779 112.777 50.9179 112.612C50.7579 112.446 50.6754 112.224 50.6704 111.947C50.6688 111.721 50.7288 111.525 50.8504 111.36C50.9738 111.193 51.1404 111.065 51.3504 110.975C51.5621 110.885 51.7988 110.84 52.0604 110.84C52.3721 110.84 52.6338 110.889 52.8454 110.987C53.0588 111.084 53.2204 111.216 53.3304 111.382C53.4421 111.547 53.4996 111.732 53.5029 111.935H52.7704C52.7571 111.808 52.7188 111.707 52.6554 111.632C52.5921 111.557 52.5104 111.503 52.4104 111.47C52.3121 111.437 52.1996 111.42 52.0729 111.42C51.9763 111.42 51.8879 111.431 51.8079 111.452C51.7296 111.474 51.6629 111.505 51.6079 111.545C51.5529 111.583 51.5104 111.629 51.4804 111.682C51.4504 111.736 51.4354 111.796 51.4354 111.862C51.4354 111.967 51.4704 112.052 51.5404 112.117C51.6104 112.182 51.7413 112.236 51.9329 112.277L52.5529 112.405C52.7746 112.448 52.9504 112.512 53.0804 112.597C53.2121 112.682 53.3104 112.778 53.3754 112.885C53.4421 112.992 53.4854 113.101 53.5054 113.212C53.5271 113.322 53.5379 113.424 53.5379 113.517C53.5379 113.712 53.4763 113.888 53.3529 114.045C53.2313 114.2 53.0613 114.323 52.8429 114.415C52.6246 114.505 52.3696 114.55 52.0779 114.55ZM56.6093 114.55C56.176 114.55 55.8243 114.463 55.5543 114.29C55.2843 114.115 55.1293 113.846 55.0893 113.482L55.8493 113.467C55.8893 113.632 55.9751 113.758 56.1068 113.845C56.2401 113.93 56.4068 113.972 56.6068 113.972C56.7268 113.972 56.8326 113.953 56.9243 113.915C57.0176 113.875 57.091 113.822 57.1443 113.755C57.1976 113.687 57.2243 113.609 57.2243 113.522C57.2243 113.389 57.1818 113.29 57.0968 113.225C57.0118 113.158 56.881 113.105 56.7043 113.065L56.1118 112.938C55.8368 112.882 55.616 112.773 55.4493 112.61C55.2843 112.445 55.2001 112.224 55.1968 111.947C55.1951 111.721 55.256 111.525 55.3793 111.36C55.5043 111.193 55.6735 111.065 55.8868 110.975C56.1018 110.885 56.3426 110.84 56.6093 110.84C56.8826 110.84 57.1185 110.889 57.3168 110.987C57.5168 111.084 57.6701 111.215 57.7768 111.38C57.8851 111.543 57.9376 111.724 57.9343 111.922L57.1968 111.935C57.1735 111.775 57.1201 111.649 57.0368 111.557C56.9535 111.466 56.8151 111.42 56.6218 111.42C56.5218 111.42 56.4326 111.431 56.3543 111.452C56.276 111.474 56.2085 111.505 56.1518 111.545C56.0951 111.583 56.0518 111.629 56.0218 111.682C55.9935 111.736 55.9793 111.796 55.9793 111.862C55.9793 111.967 56.0143 112.051 56.0843 112.112C56.156 112.172 56.2901 112.228 56.4868 112.28L57.0693 112.422C57.3976 112.501 57.6343 112.635 57.7793 112.825C57.926 113.015 57.9993 113.246 57.9993 113.517C57.9993 113.726 57.9418 113.907 57.8268 114.062C57.7135 114.217 57.5526 114.337 57.3443 114.422C57.136 114.508 56.891 114.55 56.6093 114.55ZM56.2968 110.367H56.9293V111.017H56.2968V110.367ZM56.2843 114.327H56.9143V114.978H56.2843V114.327ZM59.1051 114.5V111.792H58.4601V111.38C58.6668 111.38 58.8335 111.361 58.9601 111.322C59.0885 111.282 59.1843 111.226 59.2476 111.152C59.311 111.077 59.3485 110.988 59.3601 110.885H59.8451V114.5H59.1051ZM61.9988 110.835C62.4288 110.835 62.768 110.996 63.0163 111.317C63.2646 111.637 63.3888 112.098 63.3888 112.7C63.3888 113.298 63.2663 113.757 63.0213 114.077C62.7763 114.396 62.4355 114.555 61.9988 114.555C61.5605 114.555 61.218 114.396 60.9713 114.077C60.7263 113.759 60.6038 113.301 60.6038 112.702C60.6038 112.302 60.6605 111.963 60.7738 111.685C60.8871 111.407 61.048 111.196 61.2563 111.052C61.4646 110.907 61.7121 110.835 61.9988 110.835ZM61.9988 113.957C62.2138 113.957 62.3713 113.862 62.4713 113.67C62.5713 113.477 62.6213 113.154 62.6213 112.702C62.6213 112.241 62.5705 111.91 62.4688 111.71C62.3671 111.51 62.2096 111.41 61.9963 111.41C61.783 111.41 61.6238 111.511 61.5188 111.712C61.4155 111.914 61.3638 112.244 61.3638 112.702C61.3638 113.152 61.4155 113.474 61.5188 113.667C61.6221 113.861 61.7821 113.957 61.9988 113.957ZM65.4494 110.885H66.1669V113.088H66.7244V113.7H66.1669V114.5H65.4644L65.4669 113.7H63.8019V113.1L65.4494 110.885ZM64.4769 113.088H65.4669V111.762L64.4769 113.088ZM67.1157 114.5V113.705H67.9157V114.5H67.1157ZM69.7633 114.555C69.5383 114.555 69.3283 114.512 69.1333 114.425C68.9383 114.338 68.7792 114.217 68.6558 114.06C68.5325 113.902 68.4633 113.717 68.4483 113.505H69.1433C69.1733 113.645 69.24 113.759 69.3433 113.847C69.4467 113.934 69.5767 113.977 69.7333 113.977C69.9067 113.977 70.0583 113.937 70.1883 113.855C70.32 113.773 70.4183 113.643 70.4833 113.465C70.55 113.287 70.5733 113.053 70.5533 112.765C70.5067 112.853 70.4417 112.931 70.3583 112.997C70.2767 113.062 70.1808 113.113 70.0708 113.15C69.9608 113.185 69.8383 113.202 69.7033 113.202C69.4583 113.202 69.2408 113.157 69.0508 113.065C68.8625 112.972 68.7142 112.84 68.6058 112.67C68.4992 112.498 68.4458 112.295 68.4458 112.06C68.4458 111.823 68.5025 111.612 68.6158 111.427C68.7292 111.242 68.8875 111.097 69.0908 110.992C69.2942 110.887 69.5325 110.835 69.8058 110.835C70.1125 110.835 70.3767 110.908 70.5983 111.055C70.8217 111.2 70.9925 111.407 71.1108 111.675C71.2308 111.942 71.2908 112.256 71.2908 112.617C71.2908 113.049 71.2292 113.409 71.1058 113.697C70.9842 113.984 70.8092 114.199 70.5808 114.342C70.3525 114.484 70.08 114.555 69.7633 114.555ZM69.8283 112.622C69.93 112.622 70.0283 112.6 70.1233 112.555C70.22 112.508 70.2992 112.45 70.3608 112.38C70.4225 112.31 70.4533 112.237 70.4533 112.162C70.455 112.001 70.4292 111.862 70.3758 111.747C70.3242 111.631 70.2508 111.542 70.1558 111.48C70.0625 111.418 69.9533 111.387 69.8283 111.387C69.7133 111.387 69.6108 111.414 69.5208 111.467C69.4308 111.521 69.36 111.596 69.3083 111.692C69.2567 111.789 69.2308 111.901 69.2308 112.027C69.2308 112.216 69.2858 112.362 69.3958 112.467C69.5058 112.571 69.65 112.622 69.8283 112.622ZM73.1121 110.835C73.5421 110.835 73.8812 110.996 74.1296 111.317C74.3779 111.637 74.5021 112.098 74.5021 112.7C74.5021 113.298 74.3796 113.757 74.1346 114.077C73.8896 114.396 73.5487 114.555 73.1121 114.555C72.6737 114.555 72.3312 114.396 72.0846 114.077C71.8396 113.759 71.7171 113.301 71.7171 112.702C71.7171 112.302 71.7737 111.963 71.8871 111.685C72.0004 111.407 72.1612 111.196 72.3696 111.052C72.5779 110.907 72.8254 110.835 73.1121 110.835ZM73.1121 113.957C73.3271 113.957 73.4846 113.862 73.5846 113.67C73.6846 113.477 73.7346 113.154 73.7346 112.702C73.7346 112.241 73.6837 111.91 73.5821 111.71C73.4804 111.51 73.3229 111.41 73.1096 111.41C72.8962 111.41 72.7371 111.511 72.6321 111.712C72.5287 111.914 72.4771 112.244 72.4771 112.702C72.4771 113.152 72.5287 113.474 72.6321 113.667C72.7354 113.861 72.8954 113.957 73.1121 113.957ZM74.9947 114.5V113.91H75.5447V114.5H74.9947Z" fill="#36536B"/>
<path fill-rule="evenodd" clip-rule="evenodd" d="M23.9089 92.2277V90.7408L25.1203 88.6914H24.3521L23.5597 90.1245L22.7577 88.6914H21.9967L23.2057 90.7384V92.2277H23.9089ZM26.5364 92.2766C26.7901 92.2766 27.0065 92.2212 27.1855 92.1103C27.3645 91.9995 27.5018 91.8466 27.5973 91.6518C27.6929 91.457 27.7406 91.2324 27.7406 90.978C27.7406 90.7074 27.6916 90.4726 27.5937 90.2737C27.4958 90.0748 27.3569 89.9211 27.1771 89.8127C26.9972 89.7043 26.7845 89.6501 26.5389 89.6501C26.2932 89.6501 26.0801 89.7055 25.8994 89.8164C25.7188 89.9272 25.5791 90.0821 25.4804 90.281C25.3816 90.4799 25.3323 90.7123 25.3323 90.978C25.3323 91.2438 25.3816 91.4737 25.4804 91.6677C25.5791 91.8617 25.7188 92.0117 25.8994 92.1177C26.0801 92.2236 26.2924 92.2766 26.5364 92.2766ZM26.2282 91.631C26.3036 91.7076 26.4072 91.7459 26.5389 91.7459C26.6625 91.7459 26.762 91.7093 26.8375 91.6359C26.9129 91.5625 26.9679 91.4659 27.0025 91.3461C27.037 91.2263 27.0542 91.0954 27.0542 90.9536C27.0542 90.8199 27.0386 90.6935 27.0073 90.5745C26.976 90.4555 26.9226 90.3593 26.8471 90.2859C26.7717 90.2126 26.6689 90.1759 26.5389 90.1759C26.4152 90.1759 26.3153 90.2105 26.239 90.2798C26.1627 90.3491 26.107 90.4429 26.0716 90.5611C26.0363 90.6793 26.0186 90.8101 26.0186 90.9536C26.0186 91.0856 26.0347 91.2124 26.0668 91.3339C26.0989 91.4553 26.1527 91.5544 26.2282 91.631ZM29.1254 92.2766C29.2234 92.2766 29.3233 92.2616 29.4253 92.2314C29.5272 92.2012 29.6179 92.1466 29.6974 92.0675C29.7769 91.9885 29.8311 91.8747 29.86 91.7264L29.9418 92.2277H30.4717V89.699H29.7757V91.3449C29.7757 91.4753 29.7351 91.5768 29.6541 91.6493C29.573 91.7219 29.4634 91.7582 29.3253 91.7582C29.1792 91.7582 29.0684 91.7207 28.993 91.6457C28.9175 91.5707 28.8798 91.4745 28.8798 91.3571V89.699H28.1765V91.4476C28.1765 91.5829 28.2042 91.7019 28.2596 91.8046C28.315 91.9074 28.3885 91.9938 28.48 92.0639C28.5715 92.134 28.673 92.187 28.7846 92.2228C28.8962 92.2587 29.0098 92.2766 29.1254 92.2766ZM31.7457 90.8435V92.2277H31.0425V89.699H31.7192V90.2982C31.7593 90.1694 31.8159 90.0565 31.889 89.9594C31.9621 89.8624 32.0508 89.7866 32.1551 89.732C32.2595 89.6774 32.3775 89.6501 32.5091 89.6501C32.5316 89.6501 32.5529 89.6513 32.573 89.6537C32.593 89.6562 32.6079 89.6599 32.6175 89.6647V90.3446C32.6031 90.3381 32.5858 90.334 32.5657 90.3324C32.5457 90.3308 32.5276 90.3291 32.5116 90.3275C32.3735 90.3161 32.2555 90.3202 32.1575 90.3397C32.0596 90.3593 31.9801 90.3927 31.9191 90.44C31.8581 90.4873 31.8139 90.5452 31.7866 90.6136C31.7593 90.6821 31.7457 90.7587 31.7457 90.8435ZM34.5587 92.2277L34.8501 91.4085H36.1024L36.3866 92.2277H37.0874L35.8423 88.6914H35.1005L33.853 92.2277H34.5587ZM35.0066 90.7848H35.9338L35.4738 89.3811L35.0066 90.7848ZM38.2242 93.0152V91.8487C38.2595 91.909 38.3008 91.9648 38.3482 92.0162C38.3956 92.0675 38.4493 92.1128 38.5096 92.1519C38.5698 92.191 38.6352 92.2216 38.7058 92.2436C38.7765 92.2656 38.8519 92.2766 38.9322 92.2766C39.1281 92.2766 39.3039 92.2294 39.4596 92.1348C39.6154 92.0402 39.7378 91.8947 39.8269 91.6983C39.916 91.5018 39.9606 91.2503 39.9606 90.9438C39.9606 90.6487 39.9192 90.4054 39.8366 90.2138C39.7539 90.0222 39.6403 89.8804 39.4958 89.7883C39.3513 89.6961 39.1867 89.6501 39.0021 89.6501C38.917 89.6501 38.8359 89.6603 38.7588 89.6806C38.6817 89.701 38.6103 89.73 38.5445 89.7675C38.4786 89.805 38.4188 89.8486 38.365 89.8983C38.3113 89.948 38.2659 90.0031 38.229 90.0634L38.2266 89.699H37.5209V93.0152H38.2242ZM38.4614 91.6408C38.5409 91.7158 38.6416 91.7533 38.7636 91.7533C38.9162 91.7533 39.0442 91.6889 39.1478 91.5601C39.2513 91.4313 39.3031 91.2275 39.3031 90.9487C39.3031 90.7041 39.2537 90.513 39.155 90.3752C39.0562 90.2374 38.9258 90.1685 38.7636 90.1685C38.5822 90.1685 38.4469 90.2431 38.3578 90.3923C38.2687 90.5415 38.2242 90.7269 38.2242 90.9487C38.2242 91.0905 38.2438 91.2226 38.2832 91.3449C38.3225 91.4671 38.3819 91.5658 38.4614 91.6408ZM41.131 93.0152V91.8487C41.1664 91.909 41.2077 91.9648 41.2551 92.0162C41.3024 92.0675 41.3562 92.1128 41.4164 92.1519C41.4766 92.191 41.5421 92.2216 41.6127 92.2436C41.6834 92.2656 41.7588 92.2766 41.8391 92.2766C42.035 92.2766 42.2108 92.2294 42.3665 92.1348C42.5223 92.0402 42.6447 91.8947 42.7338 91.6983C42.8229 91.5018 42.8675 91.2503 42.8675 90.9438C42.8675 90.6487 42.8261 90.4054 42.7434 90.2138C42.6607 90.0222 42.5471 89.8804 42.4026 89.7883C42.2581 89.6961 42.0936 89.6501 41.9089 89.6501C41.8238 89.6501 41.7428 89.6603 41.6657 89.6806C41.5886 89.701 41.5172 89.73 41.4513 89.7675C41.3855 89.805 41.3257 89.8486 41.2719 89.8983C41.2181 89.948 41.1728 90.0031 41.1359 90.0634L41.1334 89.699H40.4278V93.0152H41.131ZM41.3683 91.6408C41.4477 91.7158 41.5485 91.7533 41.6705 91.7533C41.823 91.7533 41.9511 91.6889 42.0546 91.5601C42.1582 91.4313 42.21 91.2275 42.21 90.9487C42.21 90.7041 42.1606 90.513 42.0619 90.3752C41.9631 90.2374 41.8327 90.1685 41.6705 90.1685C41.4891 90.1685 41.3538 90.2431 41.2647 90.3923C41.1756 90.5415 41.131 90.7269 41.131 90.9487C41.131 91.0905 41.1507 91.2226 41.19 91.3449C41.2294 91.4671 41.2888 91.5658 41.3683 91.6408Z" fill="#BA4270"/>
<path opacity="0.5" fill-rule="evenodd" clip-rule="evenodd" d="M92.5528 92.1739C92.446 92.2424 92.2947 92.2766 92.0988 92.2766C91.9752 92.2766 91.8592 92.262 91.7508 92.2326C91.6424 92.2033 91.5706 92.1813 91.5353 92.1666L91.5666 91.7337C91.6164 91.7516 91.6738 91.7741 91.7388 91.801C91.8038 91.8279 91.8845 91.8413 91.9808 91.8413C92.1382 91.8413 92.2461 91.7973 92.3047 91.7093C92.3633 91.6212 92.3927 91.4729 92.3927 91.2642V88.6914H92.8382V91.3938C92.8382 91.5813 92.8173 91.7411 92.7756 91.8731C92.7338 92.0052 92.6596 92.1054 92.5528 92.1739ZM94.8191 92.2241C94.7171 92.2607 94.6075 92.2783 94.4903 92.2766C94.3603 92.275 94.2378 92.2558 94.123 92.2192C94.0083 92.1825 93.9067 92.1283 93.8184 92.0565C93.7301 91.9848 93.6606 91.8955 93.6101 91.7887C93.5595 91.6819 93.5342 91.5576 93.5342 91.4158V89.699H93.9798V91.3693C93.9798 91.534 94.0299 91.6677 94.1303 91.7704C94.2306 91.8731 94.3819 91.9245 94.5842 91.9245C94.7673 91.9245 94.9146 91.876 95.0262 91.779C95.1378 91.6819 95.1936 91.5373 95.1936 91.3449V89.699H95.6367V92.2277H95.2827L95.2369 91.7435C95.2064 91.8707 95.1546 91.9734 95.0816 92.0516C95.0085 92.1299 94.921 92.1874 94.8191 92.2241ZM97.2166 92.2766C97.4189 92.2766 97.5911 92.2461 97.7332 92.1849C97.8753 92.1238 97.9844 92.0374 98.0607 91.9257C98.137 91.814 98.1751 91.6807 98.1751 91.5258C98.1751 91.4639 98.1659 91.3991 98.1474 91.3314C98.1289 91.2638 98.0976 91.1989 98.0535 91.137C98.0093 91.075 97.9499 91.0188 97.8753 90.9682C97.8006 90.9177 97.7055 90.8769 97.5899 90.846L97.0913 90.7188C96.9533 90.6846 96.8489 90.6418 96.7783 90.5904C96.7076 90.539 96.6723 90.4685 96.6723 90.3789C96.6723 90.2435 96.7221 90.1437 96.8216 90.0793C96.9211 90.0149 97.0504 89.9827 97.2093 89.9827C97.3619 89.9827 97.4835 90.0181 97.5742 90.0891C97.6649 90.16 97.7183 90.2558 97.7344 90.3764H98.1269C98.1205 90.1384 98.0342 89.9578 97.868 89.8347C97.7019 89.7116 97.4839 89.6501 97.2142 89.6501C97.0038 89.6501 96.828 89.6827 96.6867 89.7479C96.5454 89.8131 96.4395 89.902 96.3688 90.0145C96.2982 90.127 96.2637 90.2574 96.2653 90.4058C96.2653 90.5933 96.3255 90.7392 96.4459 90.8435C96.5663 90.9479 96.7269 91.0245 96.9276 91.0734L97.443 91.203C97.5553 91.2291 97.6384 91.2703 97.6922 91.3265C97.746 91.3828 97.7729 91.4574 97.7729 91.5503C97.7729 91.6824 97.7215 91.7802 97.6188 91.8438C97.516 91.9074 97.3811 91.9391 97.2142 91.9391C97.1098 91.9391 97.0135 91.9224 96.9252 91.889C96.8369 91.8556 96.7634 91.8059 96.7048 91.7398C96.6462 91.6738 96.6057 91.5911 96.5832 91.4916H96.1786C96.2043 91.6726 96.2661 91.8213 96.364 91.9379C96.462 92.0545 96.5852 92.1401 96.7337 92.1947C96.8822 92.2493 97.0432 92.2766 97.2166 92.2766ZM99.9705 92.2277C99.9087 92.2359 99.832 92.24 99.7405 92.24C99.5687 92.24 99.4355 92.2163 99.3407 92.169C99.246 92.1217 99.1798 92.0516 99.142 91.9587C99.1043 91.8658 99.0855 91.7516 99.0855 91.6163V90.0291H98.6809V89.699H99.0975L99.2059 88.9629H99.5334V89.6965H100.095V90.0291H99.5334V91.6017C99.5334 91.6913 99.5426 91.7569 99.5611 91.7985C99.5796 91.8401 99.6109 91.8666 99.655 91.878C99.6992 91.8894 99.7598 91.8951 99.8369 91.8951H100.109V92.1984C100.078 92.2098 100.032 92.2196 99.9705 92.2277ZM102.382 92.2277V89.4398L104.251 92.2277H104.649V88.6914H104.203V91.4402L102.363 88.6914H101.937V92.2277H102.382ZM107.09 92.1116C106.922 92.2216 106.714 92.2766 106.467 92.2766C106.237 92.2766 106.037 92.2265 105.865 92.1262C105.693 92.026 105.56 91.8788 105.465 91.6848C105.37 91.4908 105.323 91.2536 105.323 90.9731C105.323 90.709 105.367 90.4775 105.456 90.2786C105.544 90.0797 105.673 89.9252 105.844 89.8152C106.015 89.7051 106.223 89.6501 106.467 89.6501C106.697 89.6501 106.896 89.701 107.066 89.8029C107.235 89.9048 107.366 90.0544 107.459 90.2517C107.552 90.449 107.599 90.6894 107.599 90.9731C107.599 91.2307 107.556 91.4574 107.47 91.653C107.384 91.8487 107.257 92.0015 107.09 92.1116ZM106.467 91.9196C106.302 91.9196 106.168 91.8772 106.065 91.7924C105.962 91.7076 105.887 91.5927 105.838 91.4476C105.79 91.3025 105.766 91.1411 105.766 90.9634C105.766 90.7628 105.793 90.5908 105.847 90.4473C105.901 90.3039 105.98 90.1942 106.084 90.1184C106.188 90.0426 106.316 90.0047 106.467 90.0047C106.631 90.0047 106.764 90.0471 106.866 90.1319C106.968 90.2166 107.042 90.3312 107.088 90.4755C107.135 90.6198 107.158 90.7824 107.158 90.9634C107.158 91.1606 107.132 91.331 107.079 91.4745C107.026 91.618 106.948 91.728 106.845 91.8046C106.742 91.8813 106.616 91.9196 106.467 91.9196ZM109.699 90.3617L109.16 92.2277H108.724L107.955 89.699H108.367L108.938 91.6432H108.977L109.538 89.699H109.875L110.458 91.6383H110.496L111.043 89.699H111.46L110.706 92.2277H110.267L109.699 90.3617Z" fill="#36536B"/>
</g>
</g>
<defs>
<filter id="filter0_d_0_892" x="0" y="0" width="134.958" height="247.727" filterUnits="userSpaceOnUse" color-interpolation-filters="sRGB">
<feFlood flood-opacity="0" result="BackgroundImageFix"/>
<feColorMatrix in="SourceAlpha" type="matrix" values="0 0 0 0 0 0 0 0 0 0 0 0 0 0 0 0 0 0 127 0" result="hardAlpha"/>
<feOffset dy="4"/>
<feGaussianBlur stdDeviation="2"/>
<feComposite in2="hardAlpha" operator="out"/>
<feColorMatrix type="matrix" values="0 0 0 0 0 0 0 0 0 0 0 0 0 0 0 0 0 0 0.25 0"/>
<feBlend mode="normal" in2="BackgroundImageFix" result="effect1_dropShadow_0_892"/>
<feBlend mode="normal" in="SourceGraphic" in2="effect1_dropShadow_0_892" result="shape"/>
</filter>
<filter id="filter1_d_0_892" x="9.24426" y="75" width="135.004" height="72.5532" filterUnits="userSpaceOnUse" color-interpolation-filters="sRGB">
<feFlood flood-opacity="0" result="BackgroundImageFix"/>
<feColorMatrix in="SourceAlpha" type="matrix" values="0 0 0 0 0 0 0 0 0 0 0 0 0 0 0 0 0 0 127 0" result="hardAlpha"/>
<feMorphology radius="10" operator="erode" in="SourceAlpha" result="effect1_dropShadow_0_892"/>
<feOffset dx="10" dy="10"/>
<feGaussianBlur stdDeviation="12.5"/>
<feColorMatrix type="matrix" values="0 0 0 0 0.212302 0 0 0 0 0.32521 0 0 0 0 0.419299 0 0 0 0.25 0"/>
<feBlend mode="normal" in2="BackgroundImageFix" result="effect1_dropShadow_0_892"/>
<feBlend mode="normal" in="SourceGraphic" in2="effect1_dropShadow_0_892" result="shape"/>
</filter>
<linearGradient id="paint0_linear_0_892" x1="8.84363" y1="0" x2="8.84363" y2="5.91549" gradientUnits="userSpaceOnUse">
<stop stop-color="#454545"/>
<stop offset="0.226279" stop-color="#999999"/>
<stop offset="1" stop-color="white"/>
</linearGradient>
<linearGradient id="paint1_linear_0_892" x1="129.799" y1="42.1589" x2="125.223" y2="42.1589" gradientUnits="userSpaceOnUse">
<stop stop-color="white" stop-opacity="0.01"/>
<stop offset="0.222178" stop-color="#BABABA"/>
<stop offset="0.54678" stop-color="white" stop-opacity="0.01"/>
<stop offset="1" stop-color="white" stop-opacity="0.01"/>
</linearGradient>
<linearGradient id="paint2_linear_0_892" x1="5.24195" y1="41.0338" x2="9.82505" y2="41.0338" gradientUnits="userSpaceOnUse">
<stop stop-color="white" stop-opacity="0.01"/>
<stop offset="0.222178" stop-color="#BABABA"/>
<stop offset="0.54678" stop-color="white" stop-opacity="0.01"/>
<stop offset="1" stop-color="white" stop-opacity="0.01"/>
</linearGradient>
<linearGradient id="paint3_linear_0_892" x1="11.4399" y1="6" x2="11.4399" y2="227.264" gradientUnits="userSpaceOnUse">
<stop stop-color="#9CB6CD"/>
<stop offset="0.420564" stop-color="#9AB3CA"/>
<stop offset="0.716592" stop-color="#557496"/>
<stop offset="1" stop-color="#475178"/>
</linearGradient>
<clipPath id="clip0_0_892">
<rect width="105" height="43" fill="white" transform="translate(14.2443 80)"/>
</clipPath>
</defs>
</svg>
